<svg xmlns="http://www.w3.org/2000/svg" width="201.037" height="106.024" viewBox="0 0 201.037 106.024">
  <g id="Group_13672" data-name="Group 13672" transform="translate(2063.223 293.953)">
    <path id="Path_6" data-name="Path 6" d="M-828.625,84.115c-.225.042-.517.007-.664.137a2.964,2.964,0,0,1-2.406.584l-1.337-1.264c0-.945,0-1.854-.019-2.78a.66.66,0,0,0,.052.055l.3-.256-.116-.116a2.079,2.079,0,0,0-.237.317c-.515.489-1.066.945-1.58,1.439a8.033,8.033,0,0,1-3.753,2.6h-1.126l-.836-1.048V82.261c.261-1.116,1.264-1.8,1.417-2.937a.752.752,0,0,0,.052.055l.3-.256-.116-.116a2.078,2.078,0,0,0-.237.317c-.559.39-1.136.765-1.7,1.129l-1.854-.681a8.1,8.1,0,0,1-5.452,5.079c-.178,0-.787-.028-1.392.006a2.235,2.235,0,0,1-2.227-1.165c-.347-.746-1.09-1.63-.323-2.588.623-2.708,2.784-3.924,5.019-4.946.7-.32,1.671-.05,2.711-.05a2.967,2.967,0,0,1,1.8,2.136,5.233,5.233,0,0,0,.962,1.452c1.344.072,1.96-.781,2.661-1.457l.376.377,5.991-9.828,2.636-.28a6.656,6.656,0,0,1-1.065,2.15c-1.342,2.2-2.845,4.3-4.1,6.563-.668,1.2-1.532,2.3-2.246,3.48a10.082,10.082,0,0,0-1.489,3.24,1.543,1.543,0,0,0,1.956-.472c1.289-1.343,2.867-2.418,3.812-4.095a6.087,6.087,0,0,1,1.105-1.135l.349.349c1.06-.875,1.8-2.2,3.285-2.534h2.749l.959,1.24.306-.852h2.481l-4.507,7.888c.221.062.435.2.539.14a19.266,19.266,0,0,0,5.848-5.348c.243-.329.763-.454,1.286-.746l5.774-9.631h2.378c.14,1-.687,1.467-1.075,2.131-1.183,2.026-2.439,4.01-3.654,6.017-.265.437-.933.657-.739,1.346a3.554,3.554,0,0,0-.348.384.629.629,0,0,0-.053-.055l-.3.256.116.116a2.07,2.07,0,0,0,.237-.317,3.554,3.554,0,0,1,.348-.384c.277-.216.563-.421.829-.65.624-.535,1.239-1.081,1.777-1.553h1.991l.9.918c.227,1.928-1,3.244-2.049,4.615a2.852,2.852,0,0,0-.719,2.573,2.807,2.807,0,0,0,1.76-1.03c1.292-1.505,2.912-2.677,4.078-4.34a9.1,9.1,0,0,1,2.8-1.989,4.7,4.7,0,0,1,1.707-.718,17.436,17.436,0,0,1,2.518-.031l.935.911v1c-1.584,2.4-4.255,2.484-6.547,3.346a2.349,2.349,0,0,0,.819,2.413h2.12a10.874,10.874,0,0,0,4.725-3.53c.934-1.286,2.42-2.1,3.029-3.719h2.8c-.089.532-1,.74-.7,1.413l-.367.367a3.543,3.543,0,0,0-.348.384.622.622,0,0,0-.052-.055l-.3.256.116.116a2.07,2.07,0,0,0,.237-.317,3.543,3.543,0,0,1,.348-.384l.367-.367,2.688-1.783h1.809c-.432,1.02-1.176,1.812-1.2,3.112l.932.248c.887-.012,1.138-.156,2.244-1.166l.344.343,1.464-2.148h2.507c-1.453,2.574-3.53,4.655-4.294,7.642,1.845-.259,2.853-1.409,3.889-2.5s2.053-2.218,3.222-3.485a2.965,2.965,0,0,1-.96,1.968c-1.129,1.121-2.226,2.274-3.383,3.364a4.4,4.4,0,0,1-3.635,1.363l-.6-.976-.206.164V82.253c.253-1.093,1.239-1.8,1.407-2.929a.629.629,0,0,0,.053.055l.3-.256-.116-.116a2.079,2.079,0,0,0-.237.317c-1.18.577-2.279,1.478-3.8,1.055l-1.309-1.441-.047-1.056c-2.46,1.772-3.908,4.285-5.495,6.552H-799.7a8.222,8.222,0,0,1,.4-.8,5.961,5.961,0,0,0,1.164-2.456,3.544,3.544,0,0,0,.348-.384.624.624,0,0,0,.052.055l.3-.256-.116-.116a2.07,2.07,0,0,0-.237.317,3.544,3.544,0,0,1-.348.384,7.186,7.186,0,0,0-1.078.915c-1.187,1.482-2.913,2.068-4.579,2.656a4.657,4.657,0,0,1-2.661-.023,1.973,1.973,0,0,1-1.6-1.453c-.118-.692-.763-1.381-.009-2.085.033-.03-.068-.2-.142-.408-.872.871-1.765,1.668-2.537,2.568a7.314,7.314,0,0,1-2.184,1.389c-.676.389-1.347.024-2.114-.518-.628-.825-.447-1.8.288-2.789.368-.5.515-1.184.938-1.608a6.045,6.045,0,0,0,1.595-2.673l-.619-.44a20.272,20.272,0,0,0-6.751,7.714h-2.481c.235-.976,1.251-1.507,1.16-2.51a.905.905,0,0,0,.735-1.1,3.567,3.567,0,0,0,.348-.384.681.681,0,0,0,.052.055l.3-.256-.116-.116a2.078,2.078,0,0,0-.236.317,3.567,3.567,0,0,1-.348.384.905.905,0,0,0-.735,1.1c-1.612.893-2.834,2.391-4.639,2.99-.374.124-.733.294-1.252.5a12.836,12.836,0,0,1-3,3.715,16.022,16.022,0,0,1-2.64,1.6c-1.939.977-4.045.759-6.3.729l-1.95-1.462a16.78,16.78,0,0,1,.025-2.424c.123-.807,1.057-.97,1.538-1.574h3.063l-2.261.93-.639,1.933a6.812,6.812,0,0,0,.958,1.447,2.257,2.257,0,0,0,2.512.609,8.008,8.008,0,0,0,2.784-1.276c.22-.184.543-.274.705-.492a45.874,45.874,0,0,0,3.38-4.658c.052-.093.007-.241.007-.363a3.556,3.556,0,0,0,.348-.384.6.6,0,0,0,.052.055l.3-.256-.116-.116a2.07,2.07,0,0,0-.236.317A3.556,3.556,0,0,1-828.625,84.115Zm-20.25.364c2.432-1.239,3.834-3.482,4.383-6.715l-.844-1.464c-2.929,1.255-3.555,3.953-4.57,6.352a3.3,3.3,0,0,0-.024,1.285Zm22.269-8.085a9.921,9.921,0,0,0-2.115,1.455,9.128,9.128,0,0,0-1.664,2.753c-.372.968-.889,2.069.166,3.112h1.033a8.53,8.53,0,0,0,2.517-2.794,23.607,23.607,0,0,0,1.443-3.55Zm25.025-.028c-1.945.85-3.54,2.548-3.816,4.087a5.96,5.96,0,0,0,3.38-1.865A2.052,2.052,0,0,0-801.581,76.366Z" transform="translate(-1135.769 -279.415)"/>
    <path id="Path_7" data-name="Path 7" d="M-788.653-112.226h-2.25a4.518,4.518,0,0,0-.919-2.58,8.072,8.072,0,0,1-1.307-4.036,45,45,0,0,1,.046-6.05c.285-2.281.065-4.584.392-6.818.255-1.743.027-3.487.334-5.174.36-1.976.119-3.963.389-5.9.165-1.181.244-2.347.317-3.527.039-.627.312-1.243.331-1.869a10.486,10.486,0,0,1,.357-2.057c.147-.639-.115-1.38.06-2a20.057,20.057,0,0,0,.739-5.329l.7,1.246c-.255,1.73.6,3.522.365,5.391.56,1.127.132,2.386.415,3.507.376,1.491.083,3,.375,4.437.28,1.372.065,2.767.37,4.067.337,1.437.059,2.885.358,4.256.364,1.674.03,3.383.384,4.983a38.068,38.068,0,0,1,.313,5.184c.054.628.285,1.241.342,1.869.062.667-.031,1.348.022,2.017a10.416,10.416,0,0,1-1.319,5.148C-788.284-114.471-789.01-113.559-788.653-112.226Z" transform="translate(-1173.096 -136.379)"/>
    <path id="Path_8" data-name="Path 8" d="M-841.009-157.248l.642.642c0,.34,0,.813,0,1.285,0,1.488.623,2.925.367,4.435.616.8.177,1.756.391,2.594.424,1.654.118,3.359.414,4.979.195,1.067.1,2.137.328,3.157.408,1.844.085,3.733.41,5.53.26,1.44.015,2.89.339,4.254.47,1.978.2,3.946.334,5.913.039.567.283,1.117.34,1.685.062.605-.03,1.226.022,1.833.208,2.473-.771,4.636-1.708,6.819-.268.624-.448,1.286-.715,2.065h-1.522c-.1-.1-.256-.183-.266-.277-.124-1.246-.944-2.185-1.458-3.251a7.675,7.675,0,0,1-.965-3.829c.068-1.22-.033-2.448.027-3.668.065-1.3.279-2.588.341-3.886a19.646,19.646,0,0,1,.072-3.838c.479-1.864.021-3.735.352-5.543.339-1.854.083-3.73.4-5.531.23-1.315.052-2.636.334-3.888.432-1.92.3-3.939,1.057-5.793.043-.1,0-.243.007-.364C-841.321-153.638-841.173-155.349-841.009-157.248Z" transform="translate(-1140.924 -136.585)"/>
    <path id="Path_9" data-name="Path 9" d="M-739.008-157.144a6.407,6.407,0,0,1,.582,3.137c-.078.888.515,1.667.391,2.6a3.133,3.133,0,0,0,.333,2.415c.029.04,0,.12,0,.181.122,2.029.09,4.083.413,6.079.29,1.793.079,3.609.4,5.346.219,1.193.076,2.384.323,3.525.4,1.844.069,3.738.411,5.529a46.125,46.125,0,0,1,.3,4.815c.055.628.264,1.241.351,1.868a11.772,11.772,0,0,1-.787,5.177,22.383,22.383,0,0,1-1.042,2.319,2.382,2.382,0,0,0-.4,1.318c.034.289-.253.616-.371.873h-1.769a3.927,3.927,0,0,0-.819-2.444,7.948,7.948,0,0,1-1.449-4.358c-.164-4.306.42-8.581.4-12.877.634-2.06.1-4.207.424-6.261.266-1.675.093-3.358.372-4.984.2-1.185.168-2.363.344-3.522.141-.929.176-1.891.391-2.774.23-.944.059-1.939.367-2.776a10.5,10.5,0,0,0,.316-2.438C-739.406-155.251-739.207-156.1-739.008-157.144Z" transform="translate(-1205.392 -136.651)"/>
    <path id="Path_10" data-name="Path 10" d="M-892.219,72.532a14.732,14.732,0,0,1-1.822,1.934c-.63.484-1.464.7-2.135,1.262h1.121l1.389,1.336V79.9c-1.43,3.191-3.975,4.173-7.288,3.953l-2-1.661.576-1.606,1.833-.484.651.652-.695.634v1.6l.5.516c2.344-.365,3.2-1.412,3.921-3.584a3.237,3.237,0,0,0-1.091-3.878c-.091-.08-.166-.178-.3-.32h-1.69l.6-.651h1.626l2.05-1.756a3.17,3.17,0,0,0-.51-3.967,13.978,13.978,0,0,0-1.1,1.268c-1.341,1.991-2.536,4.071-3.692,6.175a16.866,16.866,0,0,1-5.057,5.8c-.9.634-2,.561-2.8,1.25-1.51-.078-3.046.371-4.487-.66-.671-.48-1.29-.764-1.26-1.7,0-.161-.284-.33-.477-.539l1.295-1.8c1.017-.246,1.307.482,1.914,1.027l-.838,1.518v1.032c.987.384,1.86,1.279,3.037.471,2.156-.228,3.253-1.787,4.271-3.427.875-1.408,1.747-2.819,2.568-4.259a20.6,20.6,0,0,1,4.106-5.451c.567-.5,1.207-.916,1.873-1.414a10.218,10.218,0,0,0-8.128-.373,8.792,8.792,0,0,0-5.545,5.775c.122,1.431-.557,3.358,1.31,4.679h2.06a5.706,5.706,0,0,0,2.461-6.017l.215-.216.572.58c0,2.7-.508,5.158-3.637,6.365h-2.354l-1.872-.969-.965-1.869a7.754,7.754,0,0,1,.588-3.476,8.561,8.561,0,0,1,3.848-3.93c.831-.486,1.724-.864,2.565-1.334.864-.484,1.949-.242,2.757-.878,2.02.015,4.059-.183,6.016.538.477.176.958.34,1.5.531,1.111-.446,2.215-1.27,3.881-.98L-894,68.427c.9.29,1.048,1.094,1.427,1.668A3.709,3.709,0,0,1-892.219,72.532Z" transform="translate(-1096.447 -278.438)"/>
    <path id="Path_11" data-name="Path 11" d="M-985.806-81.837v.983h-71.159l-.087-.983Z" transform="translate(-1006.17 -184.296)"/>
    <path id="Path_12" data-name="Path 12" d="M-634.715-81.833v.979h-71.191v-.979Z" transform="translate(-1228.333 -184.299)"/>
    <path id="Path_13" data-name="Path 13" d="M-852.963-8.079V-9.122c.207.157.315.311.427.314,1.357.033,2.732.418,4.061-.193a.824.824,0,0,1,.516-.067c1.478.41,3.2.224,4.238,1.729a4.815,4.815,0,0,0,.639.638v2.475a4.167,4.167,0,0,1-2.2,2.3c0,.173-.073.4.011.525.95,1.378,1.553,2.983,2.81,4.163.778.73,1.481,1.537,2.657,1.409l.041.6a19.287,19.287,0,0,1-2.6.137,1.751,1.751,0,0,0-.341-.2c-1.319-.377-2.018-1.5-2.775-2.47A23.066,23.066,0,0,1-847.267-.9l-1.623-.316V3.614l1.58.869a1.218,1.218,0,0,1-1.42.371,3.581,3.581,0,0,0-3.006.02,1.918,1.918,0,0,1-.548.007h-.658L-853,4.389c.447-.222,1.086-.331,1.3-.691a4.236,4.236,0,0,0,.518-1.97c.058-2.444.049-4.89,0-7.334a6.057,6.057,0,0,0-.4-1.846C-851.795-8.063-852.473-7.915-852.963-8.079Zm7.644,4.518c.06-1.422.22-2.68-.848-3.652a2.787,2.787,0,0,0-2.729-.671c-.276,1.9.259,3.821-.316,5.726h2.491Z" transform="translate(-1135.27 -230.302)"/>
    <path id="Path_14" data-name="Path 14" d="M-1012.6,91.063v.8l-.535.535h-43.4l-.517-.751a3.051,3.051,0,0,1,.585-.691c.164-.115.474-.021.719-.021q21.451,0,42.9,0C-1012.8,90.941-1012.746,90.989-1012.6,91.063Z" transform="translate(-1006.17 -293.585)"/>
    <path id="Path_15" data-name="Path 15" d="M-587.052,91.169l.571.615-.537.735H-630.51a1.023,1.023,0,0,1-.428-1.351Z" transform="translate(-1275.705 -293.754)"/>
    <path id="Path_16" data-name="Path 16" d="M-939.376.381c1.775,3.439,3.544,3.894,6.6,3.754l1.034-.531V.088c-.276-1.145-1.291-.479-1.817-.853v-.57c.983.016,1.974-.316,2.936.351.76-.673,1.652-.3,2.569-.181L-929.46-.2V3.207l.369.72a11.451,11.451,0,0,1-2.658.9c-1.761.137-3.54.041-5.207.041a13.056,13.056,0,0,0-1.275-.727A5.657,5.657,0,0,1-941.791.128,5.08,5.08,0,0,1-942-.882c-.027-1.039-.01-2.079-.01-2.918a7.285,7.285,0,0,1,4.846-4.91,9.7,9.7,0,0,1,6.579.335l.928-.459c-.114,1.429-.22,2.745-.329,4.107h-.976c-.108-.7.149-1.532-.4-2.164a4.41,4.41,0,0,0-.7-.721c-.494-.356-1.2-.209-1.644-.438a1.358,1.358,0,0,0-1.585.023c-.36.212-.947.039-1.4.039-.207.207-.349.457-.558.541-1.661.67-1.887,2.185-2.194,3.654-.06.286.016.642-.129.86a1.453,1.453,0,0,0-.016,1.648A5.274,5.274,0,0,1-939.376.381Z" transform="translate(-1078.952 -230.29)"/>
    <path id="Path_17" data-name="Path 17" d="M-767.939,5.218l-.086-.54,1.321-.5c.9-3.245.41-6.451.5-9.623a3.835,3.835,0,0,0-.391-1.662.989.989,0,0,0-1.392-.471V-8.608a18,18,0,0,0,4.595.212c1.585.05,3.172.011,4.934.011l-.324,1.078.437,1.8-1.185.075c-.027-.5-.049-.915-.07-1.327l-.521-.521h-3.746c-.408,1.523.266,3.167-.417,4.724h3.873l1-1.395a17.858,17.858,0,0,1,.22,3.589l-.514.06-.648-1.039h-3.877c.754,1.693-.31,3.661.678,5.547l4.26-.451,1.711-2.532c.1.587.309.989.186,1.181-.55.854.077,2.056-.9,2.8-1.661,0-3.368.012-5.074-.01a4.364,4.364,0,0,1-1.009-.21,3.206,3.206,0,0,0-2.235.068A4.438,4.438,0,0,1-767.939,5.218Z" transform="translate(-1189.031 -230.627)"/>
    <path id="Path_18" data-name="Path 18" d="M-599.754-1.235H-602.8c-.027-.2-.049-.365-.074-.55.769-.127,1.51-.269,2.256-.369.841-.114,1.026-.852,1.424-1.551-.082-.974.241-2.129-.383-3.193l-1.759-.905h-2.2c-.022.451-.061.914-.064,1.376-.008,1.652-.034,3.305.006,4.956.042,1.726.152,3.45.235,5.242l1.96.725v.368c-.1.061-.2.185-.29.174a6.673,6.673,0,0,1-1.727-.251,3.2,3.2,0,0,0-2.445.1,6.629,6.629,0,0,1-1.692.219,4.693,4.693,0,0,1,.665-.78,11.145,11.145,0,0,1,1.07-.543V-7.376l-2.2-1.041,1.13-.023a10.639,10.639,0,0,0,3.84-.212c1.773-.532,3.166.066,4.62.718,1.166.523,2.175,2.324,1.754,3.414-.39,1.011-.623,2.285-2,2.641A4.65,4.65,0,0,0-599.754-1.235Z" transform="translate(-1290.268 -230.469)"/>
    <path id="Path_19" data-name="Path 19" d="M-679.435-1.448H-682.6v-.616h2.287l1.345-1.346c-.31-.778,1.034-1.556.077-2.5.039-1.164-.842-1.574-1.857-2.059h-2.2V3.665l1.741.594v.456c-1.041.562-1.943-.383-2.932-.229-.916.143-1.831.3-2.787.456l-.146-.615c.44-.185,1.06-.249,1.226-.558a4.422,4.422,0,0,0,.643-2.117c-.017-2.754-.007-5.507-.007-8.265l-.774-1.307-1.056-.183v-.439c.085-.062.176-.186.269-.187,1.04-.014,2.081.019,3.12-.021a2.485,2.485,0,0,0,1.553-.262,1.913,1.913,0,0,1,1.552.022c.991.424,2.206.138,3.04,1.118a3.407,3.407,0,0,1,1.12,2.67,8.988,8.988,0,0,0-.006,1.035C-677.277-2.725-677.277-2.725-679.435-1.448Z" transform="translate(-1240.25 -230.272)"/>
    <path id="Path_20" data-name="Path 20" d="M-524.63-7.43l-2.005-.9.947-.383a12.455,12.455,0,0,0,5.11-.139v.868c-.393.173-.973.245-1.183.562a3.5,3.5,0,0,0-.574,1.762c-.06,2.63-.052,5.263,0,7.894a2.909,2.909,0,0,0,.491,1.611c.269.358.87.468,1.325.689-.007.116-.014.236-.023.4-.953.527-1.77-.487-2.721-.264-.883.208-1.8.278-2.794.422.073-1.067.933-.859,1.432-1.324Z" transform="translate(-1341.754 -230.473)"/>
    <path id="Path_21" data-name="Path 21" d="M-1051.4-8.386l.351.351-1.838.865V3.756l1.572,1.273c-1.118.742-2.012-.17-2.953-.155-.925.015-1.763.817-2.718.318v-.4c.455-.223,1.107-.332,1.317-.7a4.265,4.265,0,0,0,.492-1.982c.051-2.751.021-5.5.021-8.264l-.791-1.349-.971-.089v-.861A24.211,24.211,0,0,0-1051.4-8.386Z" transform="translate(-1006.215 -230.726)"/>
    <path id="Path_22" data-name="Path 22" d="M-662,76.926c.462-.316.666-1.043,1.6-.885l.758,1.207c.385.534-.249.821-.655,1.3h-1.178l-.521-.508Z" transform="translate(-1256.111 -284.168)"/>
    <path id="Path_23" data-name="Path 23" d="M-767.016,103.1a.905.905,0,0,1,.735-1.1A.905.905,0,0,1-767.016,103.1Z" transform="translate(-1189.664 -300.606)"/>
    <path id="Path_24" data-name="Path 24" d="M-691.633,94l-.367.367Z" transform="translate(-1237.131 -295.545)"/>
    <path id="Path_25" data-name="Path 25" d="M-753.633,95l-.367.367Z" transform="translate(-1197.905 -296.178)"/>
    <path id="Path_26" data-name="Path 26" d="M-692.633,95l-.367.367Z" transform="translate(-1236.498 -296.178)"/>
    <path id="Path_27" data-name="Path 27" d="M-754.536,95.967l-.256.3-.116-.116.3-.256Z" transform="translate(-1197.331 -296.744)"/>
    <path id="Path_28" data-name="Path 28" d="M-693.536,95.967l-.256.3-.116-.116.3-.256Z" transform="translate(-1235.924 -296.744)"/>
    <path id="Path_29" data-name="Path 29" d="M-816.105,97.392l.256-.3.116.116-.3.256Z" transform="translate(-1158.613 -297.501)"/>
    <path id="Path_30" data-name="Path 30" d="M-674.105,97.392l.256-.3.116.116-.3.256Z" transform="translate(-1248.453 -297.501)"/>
    <path id="Path_31" data-name="Path 31" d="M-764.105,100.392l.256-.3.116.116-.3.256Z" transform="translate(-1191.511 -299.399)"/>
    <path id="Path_32" data-name="Path 32" d="M-800.1,101.392l.256-.3.116.116-.3.256Z" transform="translate(-1168.735 -300.032)"/>
    <path id="Path_33" data-name="Path 33" d="M-764.633,101l-.367.367Z" transform="translate(-1190.945 -299.974)"/>
    <path id="Path_34" data-name="Path 34" d="M-704.1,101.392l.256-.3.116.116-.3.256Z" transform="translate(-1229.473 -300.032)"/>
    <path id="Path_35" data-name="Path 35" d="M-704.633,102l-.367.367Z" transform="translate(-1228.906 -300.606)"/>
    <path id="Path_36" data-name="Path 36" d="M-787.1,109.392l.256-.3.116.116-.3.256Z" transform="translate(-1176.96 -305.093)"/>
    <path id="Path_37" data-name="Path 37" d="M-788,110.367l.367-.367Z" transform="translate(-1176.394 -305.668)"/>
  </g>
</svg>
