<svg xmlns="http://www.w3.org/2000/svg" viewBox="0 0 570 223.66"><defs><style>.cls-1{fill:#fff;}</style></defs><title>Asset 1</title><g id="Layer_2" data-name="Layer 2"><g id="Layer_1-2" data-name="Layer 1"><path class="cls-1" d="M69.71,223.66h-.86a30.22,30.22,0,0,1-10.69-2.18A35,35,0,0,1,49.09,216c-5.75-4.68-11.14-11.29-17.38-19l0,0c-1.63-2-3.31-4.06-5.1-6.2a23.14,23.14,0,0,0-3.37-3.34,18.32,18.32,0,0,0-3.53-2.24,17.15,17.15,0,0,0-7.41-1.63,23.22,23.22,0,0,0-6.19.9A36.23,36.23,0,0,0,0,186.81V0H79a46.63,46.63,0,0,0-7.39,3c-.77.38-1.5.76-2.21,1.13h0c-3.9,2-7.26,3.76-11.72,3.76a18.67,18.67,0,0,1-2.89-.23,12.58,12.58,0,0,0-1.94-.15,17.21,17.21,0,0,0-9.52,3.31,41.87,41.87,0,0,0-8.74,8.28,80,80,0,0,0-7.33,10.73,96.85,96.85,0,0,0-5.34,10.69,15.38,15.38,0,0,0-.9,3,17.69,17.69,0,0,0-.26,3.17,25.84,25.84,0,0,0,1,6.71,99.06,99.06,0,0,0,5.91,14.67v0l0,.07c1.75,3.77,3.55,7.67,5,11.66A55.08,55.08,0,0,1,36,92.19a44.91,44.91,0,0,0,1.6,7.43,61.36,61.36,0,0,0,2.63,7.08c2,4.64,4.5,9.06,7.11,13.75h0C52.1,129,57,137.88,59.46,148.53a49.88,49.88,0,0,0,4.08,12.12,33.39,33.39,0,0,0,4.53,6.42h0a44.06,44.06,0,0,1,4.76,6.52,65.25,65.25,0,0,1,5.39,12.47c1.37,4.1,2.43,7.66,3.25,10.9a70.53,70.53,0,0,1,1.76,9.23c.64,5.85,0,10.07-2.1,12.92a9.81,9.81,0,0,1-1.9,2,10.51,10.51,0,0,1-2.51,1.41,14.46,14.46,0,0,1-3.17.87,24.77,24.77,0,0,1-3.85.3Z"/><path class="cls-1" d="M204,27a23.65,23.65,0,0,1-10.85-2.54,57.19,57.19,0,0,1-8.83-5.88,78.5,78.5,0,0,0-9.12-6.23,43.59,43.59,0,0,0-12.42-4.67A438.94,438.94,0,0,0,116.33,0H237.55c-1.14,1.74-2.23,3.55-3.29,5.3l0,.09h0c-1.39,2.3-2.83,4.69-4.37,6.94a45.5,45.5,0,0,1-5.07,6.26,28.23,28.23,0,0,1-6.47,4.92,27.31,27.31,0,0,1-4,1.76,29.16,29.16,0,0,1-4.61,1.19A32.41,32.41,0,0,1,204,27Z"/><path class="cls-1" d="M570,25c-1.11-4.13-2.33-8-3.61-11.5A86.12,86.12,0,0,0,561.8,3c-.59-1.12-1.11-2.11-1.59-3H570Z"/></g></g></svg>