<svg xmlns="http://www.w3.org/2000/svg" viewBox="0 0 570 224.73"><defs><style>.cls-1{fill:#fff;}</style></defs><title>Asset 4</title><g id="Layer_2" data-name="Layer 2"><g id="Layer_1-2" data-name="Layer 1"><path class="cls-1" d="M570,224.73H275.17c6.43-.06,15.8-.68,24-3.32a33.82,33.82,0,0,0,9.84-4.85,19.66,19.66,0,0,0,3.57-3.43A16.11,16.11,0,0,0,315,209a20.91,20.91,0,0,1,5.34-8,49.72,49.72,0,0,1,7.43-5.42h0a64.68,64.68,0,0,0,11.37-8.66,62,62,0,0,0,12-17.29c6.85-14,12.3-26.31,17.18-38.57,4.45-11.18,8.57-22.76,13.37-37.55a56,56,0,0,0,2-8.48,54.86,54.86,0,0,0,.63-7.68,96.6,96.6,0,0,0-1-13.6h0c-.67-5.42-1.31-10.54-.55-15.73A28.46,28.46,0,0,1,385.1,40a35.93,35.93,0,0,1,2.28-4.12,42.82,42.82,0,0,1,3.19-4.28,36.24,36.24,0,0,1,4.12-4.19A32.32,32.32,0,0,1,399,24.25a34.26,34.26,0,0,1,9.26-3.88,54.43,54.43,0,0,1,9.82-1.56c3.36-.26,6.79-.33,10.12-.4h0c4.28-.09,8.7-.18,13-.67a55.54,55.54,0,0,0,6.4-1.09,39.93,39.93,0,0,0,6.25-2A33.56,33.56,0,0,1,467,11.9a39,39,0,0,1,8.41,1c2.7.6,5.36,1.41,7.93,2.19h.06c2.57.79,5.23,1.6,8,2.2a38.28,38.28,0,0,0,8.46,1,31.7,31.7,0,0,0,5.91-.54,50.41,50.41,0,0,0,11.58-4c4-1.84,7.89-4,11.68-6.06h0c3.71-2,7.2-3.94,10.37-5.35a34.38,34.38,0,0,1,4.46-1.7,13.63,13.63,0,0,1,3.8-.64,6.43,6.43,0,0,1,2,.28,4.66,4.66,0,0,1,1.61.87,5.31,5.31,0,0,1,1.23,1.56,8.53,8.53,0,0,1,.82,2.3c.72,3.19,1.22,7.67,1.75,12.4v0h0v.06c.45,4.09.92,8.32,1.6,12.56a74.57,74.57,0,0,0,2.81,12.08,33,33,0,0,0,2.14,5,18.81,18.81,0,0,0,2.8,4A11.5,11.5,0,0,0,568,53.8a9.67,9.67,0,0,0,2,.68Z"/><path class="cls-1" d="M272.91,224.73H0V196.78c2.1.54,4.25,1,6.39,1.46,3.12.61,6.12,1.08,8.91,1.38a70.46,70.46,0,0,0,7.68.43h0a51,51,0,0,0,7.41-.51,37.85,37.85,0,0,0,6.13-1.42,29.67,29.67,0,0,0,5-2.18,26.72,26.72,0,0,0,4.07-2.76c4.86-4,7.61-9.07,10-13.55,2.19-4,4.08-7.53,7-9.18,1.86-1.06,4.54-2.23,7.64-3.59h0c15-6.55,40-17.5,31.4-40.85-1.16-3.15-2.26-6.05-3.47-9.24v-.08h0c-2.16-5.67-4.2-11-5.86-16.06a91.63,91.63,0,0,1-3.67-14.22,43.34,43.34,0,0,1-.29-13.11,35.93,35.93,0,0,1,1.49-6.39,39.77,39.77,0,0,1,2.79-6.39,31.06,31.06,0,0,1,3-4.66A18.4,18.4,0,0,1,99,52.59a12.79,12.79,0,0,1,3.53-1.89,11.9,11.9,0,0,1,3.79-.62,14.76,14.76,0,0,1,3.38.42,22.13,22.13,0,0,1,3.57,1.23,39.58,39.58,0,0,1,7.69,4.72,87.66,87.66,0,0,1,8.46,7.43c2.83,2.77,5.85,6,9.23,9.78a80.73,80.73,0,0,1,10,13.47,54.54,54.54,0,0,1,4.05,9.15h0a40.6,40.6,0,0,0,4.06,8.8A62.07,62.07,0,0,0,167.18,117c9.9,9.18,16.33,19.93,22.55,30.32v0c3.4,5.68,6.61,11.05,10.32,16.09a75.42,75.42,0,0,0,5.94,7.18,56.16,56.16,0,0,0,7,6.3,56.62,56.62,0,0,1,5.87,5.18c1.75,1.75,3.48,3.68,5.29,5.88,3.37,4.1,6.45,8.46,9.42,12.67h0c4.06,5.76,7.89,11.19,12.06,15.4a31.76,31.76,0,0,0,6.54,5.24,20.35,20.35,0,0,0,3.56,1.69,18.39,18.39,0,0,0,3.81.91,117.77,117.77,0,0,0,13.4.89Z"/></g></g></svg>