<svg xmlns="http://www.w3.org/2000/svg" viewBox="0 0 1600 783.93"><defs><style>.cls-1{fill:#fff;}</style></defs><title>hero-style-1-top</title><g id="Layer_2" data-name="Layer 2"><g id="Layer_1-2" data-name="Layer 1"><path class="cls-1" d="M1304.9,783.93h0a30.79,30.79,0,0,1-11.68-2.11,24.7,24.7,0,0,1-8.83-6.15c-6-6.47-9.73-16.77-11.43-31.48a190.91,190.91,0,0,1-1.06-23.48c.07-8.28.5-17.44,1.32-28,1.08-14,3-25.39,5.75-34.84a114.51,114.51,0,0,1,7.94-19.5h0c2.83-5.77,5.5-11.22,7.38-19,2.1-8.71,3-19.24,2.68-33.14-.58-28.38,6.29-53.83,12.94-78.43h0c3.63-13.46,7.07-26.18,9.28-39.15a160.51,160.51,0,0,0,2.2-19.5,118.32,118.32,0,0,0-.64-19.74c-1.15-9.73-1-20.54.42-33.06,1.27-11.06,3.38-22.08,5.41-32.74v0c2.78-14.56,5.41-28.32,5.69-40.78a67.67,67.67,0,0,0-1.63-17.56,40.28,40.28,0,0,0-6.85-14.93,242,242,0,0,0-40.89-42.56,130,130,0,0,0-24.77-15.93c-8.83-4.19-17.08-6.32-24.5-6.32a34.1,34.1,0,0,0-13.37,2.62,46.94,46.94,0,0,1-9.14,2.85,43,43,0,0,1-8.53.83c-7.1,0-14-1.65-21.4-3.4l-2.52-.6c-8.61-2-18-4-29.76-4-12.75,0-26.2,2.35-41.12,7.2-31.27,10.17-57.8,19.82-83.47,30.36-23.44,9.62-47,20.31-76.36,34.65a112.9,112.9,0,0,0-28.38,19.59c-7.49,7.06-13.39,14.37-19.09,21.44-7.21,8.95-14,17.4-23,23.83a59.9,59.9,0,0,1-15.43,8,78.75,78.75,0,0,1-20.7,4c-1.88.13-3.76.19-5.6.19a73.2,73.2,0,0,1-11.2-.85,68.21,68.21,0,0,1-10.18-2.39,74.94,74.94,0,0,1-17.91-8.56,123.58,123.58,0,0,1-15.63-12.14c-5-4.45-9.83-9.3-14.54-14-6.4-6.37-13-12.95-20.06-18.75a114.55,114.55,0,0,0-11-8.09,84.06,84.06,0,0,0-12.17-6.52,73.62,73.62,0,0,1-15.76-9.11,67.15,67.15,0,0,1-11.32-11c-6.39-7.8-10.89-16.6-15.24-25.1h0a172.33,172.33,0,0,0-11.43-20,75.79,75.79,0,0,0-7.53-9.29,66.8,66.8,0,0,0-9.71-8.39c-5.79-4.11-13.3-7.93-23-11.68-8.52-3.3-17.52-6.12-26.23-8.84h0c-10.18-3.18-19.8-6.18-27.29-9.57a45.9,45.9,0,0,1-9.45-5.44,14.68,14.68,0,0,1-5.09-6.44,9.88,9.88,0,0,1-.36-5.26,17.14,17.14,0,0,1,2.66-6.07c3.79-5.76,9.85-13.07,16.26-20.81h0c9.16-11.05,19.54-23.57,27-35.87,8.67-14.22,11.86-25.51,9.75-34.53a22.14,22.14,0,0,0-5.46-10.11,36.52,36.52,0,0,0-12-8.14c-8.47-3.78-16.82-7.1-24.81-9.88s-15.82-5.08-23.4-6.88a201,201,0,0,0-22.27-4A178.48,178.48,0,0,0,507,34a173.69,173.69,0,0,0-19.28,1.08,184.28,184.28,0,0,0-19,3.17,177.52,177.52,0,0,1-24.2,3.19c-9.08.67-19.3,1-30.39,1-10.76,0-21.94-.32-33.23-.95s-22-1.53-32.09-2.68c-10.36-1.18-19.52-2.59-27.21-4.16-8.13-1.67-14.39-3.48-18.6-5.4a372.56,372.56,0,0,0-42.82-16.79c-23.13-7.29-44.82-11-64.46-11a143.67,143.67,0,0,0-18.25,1.13,121,121,0,0,0-18,3.7A106.49,106.49,0,0,0,142,13a101.36,101.36,0,0,0-16.51,10.2c-4.85,4.53-8.57,7.91-11.56,10.63l-.05,0c-10.44,9.47-10.44,9.47-11.48,16.27A131.72,131.72,0,0,1,98.49,67.9,428.43,428.43,0,0,1,84,109c-5.85,14.59-11.82,26.61-18.28,36.77A202.44,202.44,0,0,1,49.3,167.6c-8,9.69-15.63,18.84-23.64,35.72a260.06,260.06,0,0,0-12.34,32c-4.48,14-8.84,30.16-13.32,49.5V0H1600V660.86a56.69,56.69,0,0,0-16.8-2.48,73.14,73.14,0,0,0-13.54,1.35c-4.36.82-8.51,1.91-12.34,3l-2.45.68h0c-7,1.94-13,3.62-18.43,3.62a19.9,19.9,0,0,1-5.69-.76c-4.29-1.26-10-3.61-16.6-6.33-17.06-7-40.43-16.65-61.86-16.65a59.93,59.93,0,0,0-13.44,1.44,45.8,45.8,0,0,0-12.44,4.81,44.42,44.42,0,0,0-11,8.89,58,58,0,0,0-9,13.69c-3.14,6.51-6.09,12.77-8.94,18.84l0,.08c-10.94,23.24-20.38,43.31-31.92,58.71a91.79,91.79,0,0,1-19.42,19.61,78.45,78.45,0,0,1-25.58,12.19,59,59,0,0,1-15.6,2.41Z"/></g></g></svg>