<svg xmlns="http://www.w3.org/2000/svg" viewBox="0 0 306 23.22"><defs><style>.cls-1{fill:#fff;}</style></defs><title>mobile-edge-3</title><g id="Layer_2" data-name="Layer 2"><g id="Layer_1-2" data-name="Layer 1"><path id="mobile-edge-3" class="cls-1" d="M306,23.22H0V17.45l.06,0,.06,0a75.67,75.67,0,0,0,8.53-3.25A60.66,60.66,0,0,1,14.31,12c1.8-.59,3.64-1.09,5.48-1.5A59.83,59.83,0,0,1,30.32,9.15c.95,0,1.93-.06,2.93-.06,2.26,0,4.64.1,7.27.29,3.36.25,6.79.65,10.1,1h0c4.73.54,9.61,1.11,14.65,1.32.86,0,1.76.05,2.69.05a107.21,107.21,0,0,0,13.38-1c5.24-.67,11-1.69,17.27-3,10.74-2.32,20.92-5.23,26.86-7.18A15.85,15.85,0,0,1,130.37,0c1.28,0,2.72.08,4.41.24,3.88.37,8.54,1.14,13.47,1.95h0c9.33,1.54,19.92,3.28,30.26,3.28a62.44,62.44,0,0,0,16.71-2,64,64,0,0,1,9.46-1.73c3.52-.41,7.49-.68,11.8-.79,1.63,0,3.34-.07,5.07-.07,7,0,14.88.37,22.68,1.07A270.53,270.53,0,0,1,272.76,6c4.56.91,8.85,1.93,12.75,3a103,103,0,0,1,10.79,3.6,40.39,40.39,0,0,1,9.6,5.18l0,0,.05,0v5.34Z"/></g></g></svg>