<svg xmlns="http://www.w3.org/2000/svg" viewBox="0 0 306 25.15"><defs><style>.cls-1{fill:#fff;}</style></defs><title>mobile-edge-1</title><g id="Layer_2" data-name="Layer 2"><g id="Layer_1-2" data-name="Layer 1"><path id="Subtraction_26" data-name="Subtraction 26" class="cls-1" d="M306,25.15H0V23c4.33-2,8.71-4.12,12-5.9,1.57-.84,4-1.37,7.63-1.66,3.27-.26,7.25-.31,11.46-.35,12.28-.14,27.56-.31,39.1-5.8a53.87,53.87,0,0,1,7.59-2.82c2.86-.85,6.11-1.65,9.66-2.38A206.09,206.09,0,0,1,110.59.86C117.19.3,124,0,130.27,0c1.53,0,3.05,0,4.52.05,3.92.09,7.62.31,11,.64a86.67,86.67,0,0,1,9.47,1.4A34,34,0,0,1,164,5c4.69,2.5,12,6.2,20.12,9.61a129.23,129.23,0,0,0,22.61,7.49,50.89,50.89,0,0,0,10.07,1.23H217a26.75,26.75,0,0,0,4.16-.3,17.32,17.32,0,0,0,3.8-1,41.37,41.37,0,0,1,5.78-1.8c2.14-.52,4.58-1,7.25-1.39a155.67,155.67,0,0,1,17.34-1.52c2.23-.08,4.51-.12,6.78-.12,4,0,8,.12,11.71.36,3,.2,6,.47,8.68.81s5.43.79,7.78,1.29c1.29.27,2.51.57,3.64.88.71.2,1.47.38,2.27.55a76.08,76.08,0,0,0,9.82,1.3v2.79h0Z"/></g></g></svg>