<svg xmlns="http://www.w3.org/2000/svg" viewBox="0 0 12.713 17"><defs><style>.a{opacity:0.75;}.b{fill:#858d95;}</style></defs><g class="a" transform="translate(-700 -2529.874)"><path class="b" d="M11.923,7.145H.789A.8.8,0,0,1,0,6.356.81.81,0,0,1,.232,5.8L5.8.232a.784.784,0,0,1,1.113,0L12.48,5.8a.81.81,0,0,1,.232.557A.782.782,0,0,1,11.923,7.145Z" transform="translate(712.713 2546.874) rotate(180)"/><path class="b" d="M11.923,10.645H.789A.8.8,0,0,1,0,9.856.81.81,0,0,1,.232,9.3L5.8,3.732a.784.784,0,0,1,1.113,0L12.48,9.3a.81.81,0,0,1,.232.557A.782.782,0,0,1,11.923,10.645Z" transform="translate(700 2526.374)"/></g></svg>