<?xml version="1.0" standalone="no"?>
<!DOCTYPE svg PUBLIC "-//W3C//DTD SVG 20010904//EN"
 "http://www.w3.org/TR/2001/REC-SVG-20010904/DTD/svg10.dtd">
<svg version="1.0" xmlns="http://www.w3.org/2000/svg"
 width="349.000000pt" height="349.000000pt" viewBox="0 0 349.000000 349.000000"
 preserveAspectRatio="xMidYMid meet">
<metadata>
Created by potrace 1.11, written by Peter Selinger 2001-2013
</metadata>
<g transform="translate(0.000000,349.000000) scale(0.100000,-0.100000)"
fill="#000000" stroke="none">
<path d="M1709 3428 c0 -29 -2 -60 -3 -68 -2 -8 -6 -42 -10 -75 -3 -33 -15
-97 -26 -142 -11 -45 -19 -113 -19 -150 1 -38 -3 -86 -9 -108 -6 -22 -14 -67
-17 -100 -4 -33 -10 -76 -15 -95 -9 -34 -11 -59 -26 -240 -3 -47 -8 -88 -10
-92 -3 -4 -7 -65 -9 -135 -6 -165 -14 -282 -20 -313 -7 -31 -13 -130 -20 -285
-2 -66 -7 -131 -9 -144 -3 -13 -8 -80 -11 -150 -3 -69 -7 -178 -10 -241 -3
-63 -8 -126 -11 -140 -5 -27 -5 -319 0 -432 7 -123 24 -173 130 -375 20 -39
38 -87 39 -107 l2 -36 85 0 85 0 0 58 c1 49 8 74 48 156 103 209 120 275 118
461 0 77 -7 169 -14 205 -8 36 -15 115 -16 175 -3 165 -7 224 -20 291 -6 33
-13 124 -15 202 -3 78 -7 145 -10 150 -5 9 -12 85 -21 246 -3 55 -8 102 -10
106 -5 9 -14 102 -20 208 -2 51 -7 97 -10 102 -3 5 -8 69 -10 141 -3 73 -9
157 -15 188 -5 31 -10 88 -11 126 -1 39 -6 90 -11 115 -6 25 -12 79 -13 120
-2 41 -9 104 -15 140 -7 36 -13 97 -15 135 -1 49 -8 83 -23 113 -13 23 -25 42
-27 42 -3 0 -5 -24 -6 -52z"/>
<path d="M269 3433 c0 -21 -2 -54 -4 -73 -7 -68 -14 -156 -20 -235 -4 -44 -11
-96 -18 -115 -18 -58 -34 -144 -42 -230 -3 -30 -7 -66 -10 -80 -2 -14 -7 -45
-11 -70 -3 -24 -7 -48 -10 -51 -2 -4 -6 -53 -9 -110 -3 -57 -7 -122 -10 -144
-10 -86 -15 -155 -20 -275 -3 -69 -7 -136 -11 -150 -5 -23 -10 -123 -15 -335
-2 -44 -7 -91 -12 -105 -5 -14 -11 -117 -12 -230 -2 -113 -6 -221 -10 -240
-11 -65 -15 -493 -4 -540 15 -66 56 -163 103 -244 22 -39 50 -100 62 -136 l21
-65 49 -2 c76 -2 79 0 108 87 14 44 37 103 51 132 34 74 71 181 89 258 20 85
21 344 2 417 -9 32 -15 110 -15 199 -2 165 -8 248 -22 314 -6 25 -12 92 -15
150 -2 58 -6 123 -9 145 -7 57 -14 162 -20 297 -2 64 -9 136 -14 160 -5 24
-12 88 -16 143 -4 55 -9 103 -11 107 -3 4 -7 69 -10 145 -3 76 -9 162 -14 192
-6 30 -10 83 -10 117 0 35 -5 75 -11 91 -7 15 -13 65 -14 110 -1 44 -5 85 -8
90 -7 11 -20 134 -21 210 -1 45 -7 67 -20 82 -27 30 -36 26 -37 -16z"/>
<path d="M3150 3409 c-7 -35 -15 -71 -16 -79 -2 -8 -8 -60 -13 -115 -6 -55
-15 -116 -21 -135 -6 -19 -13 -56 -15 -82 -3 -27 -7 -71 -10 -99 -3 -28 -7
-54 -9 -58 -3 -4 -8 -39 -11 -77 -3 -38 -8 -76 -10 -84 -3 -8 -7 -44 -10 -80
-10 -131 -17 -205 -20 -211 -4 -5 -8 -66 -20 -274 -4 -55 -8 -113 -11 -130 -2
-16 -5 -103 -6 -193 0 -89 -7 -191 -13 -227 -7 -36 -13 -111 -14 -167 -2 -104
-8 -237 -16 -338 -3 -30 -7 -170 -10 -310 -4 -208 -2 -269 11 -329 16 -77 50
-163 82 -209 41 -59 70 -121 75 -163 3 -24 6 -45 6 -46 1 -2 32 -3 69 -3 64 0
70 2 80 25 7 14 12 37 12 50 0 14 22 71 49 128 111 233 149 431 115 588 -13
59 -17 105 -29 344 -2 50 -9 113 -14 140 -5 28 -11 111 -12 185 -1 74 -6 154
-10 178 -9 43 -14 99 -24 227 -3 39 -9 97 -14 130 -5 33 -9 107 -11 165 -1 58
-3 119 -5 135 -3 17 -7 57 -10 90 -4 33 -8 66 -10 73 -3 6 -7 78 -10 160 -9
201 -11 221 -29 270 -11 30 -14 68 -12 128 2 52 -2 103 -10 130 -7 24 -14 74
-15 111 -1 64 -22 172 -38 202 -5 8 -13 -11 -21 -50z"/>
</g>
</svg>
