<svg xmlns="http://www.w3.org/2000/svg" viewBox="0 0 1600 786.94"><defs><style>.cls-1{fill:#fff;}</style></defs><title>hero-style-2-top</title><g id="Layer_2" data-name="Layer 2"><g id="Layer_1-2" data-name="Layer 1"><path class="cls-1" d="M239.19,786.93a59.06,59.06,0,0,1-15.61-2.41A78.47,78.47,0,0,1,198,772.33a91.77,91.77,0,0,1-19.42-19.61c-11.53-15.39-21-35.45-31.91-58.69h0l-.11-.22c-2.83-6-5.76-12.24-8.88-18.7a58,58,0,0,0-9-13.69,44.44,44.44,0,0,0-11-8.89,45.84,45.84,0,0,0-12.44-4.81,59.93,59.93,0,0,0-13.44-1.44c-21.43,0-44.79,9.62-61.86,16.65h0c-6.6,2.72-12.3,5.07-16.59,6.32a19.91,19.91,0,0,1-5.69.76A39.21,39.21,0,0,1,0,669.12V0H1600V516.75c-3.94-15-7.3-26.71-10.54-38v0c-4.46-15.48-9.07-31.49-15.26-56.5-6.95-28.07-15.18-64.72-25.18-112-5.07-24-9.94-43.92-14.91-60.88a312.75,312.75,0,0,0-13.6-38.43c-8.77-19.85-17-29.77-25.72-40.29a202.37,202.37,0,0,1-16.4-21.87c-6.45-10.15-12.43-22.18-18.27-36.76a428.14,428.14,0,0,1-14.51-41.07,131.89,131.89,0,0,1-3.89-17.75c-1-6.8-1-6.8-11.48-16.27-3-2.72-6.73-6.11-11.61-10.67A101.36,101.36,0,0,0,1402.12,16a106.56,106.56,0,0,0-17.46-6.72,131,131,0,0,0-36.29-4.84c-19.64,0-41.33,3.7-64.46,11a367.23,367.23,0,0,0-42.82,16.79c-4.21,1.92-10.47,3.74-18.6,5.4-7.69,1.58-16.85,3-27.21,4.16-10.08,1.15-20.87,2.05-32.09,2.68s-22.46.95-33.23.95c-11.08,0-21.31-.34-30.39-1a177.47,177.47,0,0,1-24.19-3.19,184.35,184.35,0,0,0-19-3.17A173.74,173.74,0,0,0,1037.08,37a178.48,178.48,0,0,0-21.42,1.31,200.87,200.87,0,0,0-22.27,4c-7.58,1.81-15.46,4.12-23.4,6.88s-16.34,6.1-24.81,9.88a36.5,36.5,0,0,0-12,8.14,22.13,22.13,0,0,0-5.46,10.11c-2.11,9,1.08,20.31,9.75,34.53,7.51,12.31,17.89,24.84,27.05,35.89,6.41,7.73,12.46,15,16.25,20.8a17.14,17.14,0,0,1,2.66,6.07,9.89,9.89,0,0,1-.36,5.26,14.7,14.7,0,0,1-5.09,6.44,45.92,45.92,0,0,1-9.45,5.44c-7.49,3.39-17.11,6.39-27.29,9.57-8.72,2.72-17.73,5.54-26.25,8.84-9.67,3.75-17.18,7.57-23,11.68a66.76,66.76,0,0,0-9.71,8.39,75.77,75.77,0,0,0-7.53,9.29,172.24,172.24,0,0,0-11.43,20.05h0c-4.35,8.5-8.85,17.29-15.24,25.1a67.21,67.21,0,0,1-11.32,11A73.65,73.65,0,0,1,821,304.77a84.07,84.07,0,0,0-12.17,6.52,114.56,114.56,0,0,0-11,8.09c-7,5.8-13.66,12.38-20.06,18.75-4.71,4.69-9.58,9.53-14.54,14a123.73,123.73,0,0,1-15.63,12.14,74.93,74.93,0,0,1-17.91,8.56,68.17,68.17,0,0,1-10.18,2.4,73.18,73.18,0,0,1-11.2.85c-1.83,0-3.71-.06-5.59-.19a78.74,78.74,0,0,1-20.7-4,59.89,59.89,0,0,1-15.43-8c-9-6.44-15.78-14.89-23-23.83-5.71-7.07-11.6-14.39-19.09-21.45A112.9,112.9,0,0,0,596.13,299c-29.37-14.34-52.92-25-76.36-34.65-25.68-10.54-52.2-20.19-83.47-30.35-14.91-4.84-28.36-7.2-41.12-7.2-11.76,0-21.15,2-29.76,4l-2.54.6c-7.35,1.75-14.3,3.4-21.39,3.4a42.94,42.94,0,0,1-8.53-.83,46.92,46.92,0,0,1-9.14-2.85,34.09,34.09,0,0,0-13.37-2.62c-7.42,0-15.67,2.13-24.5,6.32a129.89,129.89,0,0,0-24.77,15.93,242,242,0,0,0-40.89,42.56,40.26,40.26,0,0,0-6.85,14.93,67.64,67.64,0,0,0-1.63,17.56c.28,12.46,2.91,26.21,5.69,40.78,2,10.67,4.14,21.7,5.42,32.77,1.44,12.52,1.58,23.33.42,33.06a118.42,118.42,0,0,0-.64,19.74,160.61,160.61,0,0,0,2.2,19.5c2.21,13,5.64,25.68,9.28,39.15,6.64,24.61,13.51,50.05,12.94,78.44-.28,13.9.57,24.43,2.68,33.14,1.88,7.8,4.56,13.25,7.39,19a114.43,114.43,0,0,1,7.94,19.51c2.79,9.44,4.67,20.84,5.75,34.83.82,10.58,1.25,19.74,1.32,28a191.24,191.24,0,0,1-1.06,23.48c-1.7,14.71-5.44,25-11.43,31.48a24.69,24.69,0,0,1-8.83,6.15,30.77,30.77,0,0,1-11.67,2.1h0Z"/></g></g></svg>