<svg xmlns="http://www.w3.org/2000/svg" preserveAspectRatio="none" width="149.488" height="120.406" viewBox="0 0 149.488 120.406">
  <g id="Group_232" data-name="Group 232" transform="translate(-4268.825 3096.607)">
    <path id="Path_9663" data-name="Path 9663" d="M4331.434-3034.913c-.561-1.2-1.959-1.429-2.722-1.606-.228-.444.989-.481-.2-1.2-1.637-1.048-.41.934-1.4.307l-.145-1.036c-1.489-.568-1.989-1.617-2.868-2.478a.947.947,0,0,0-.512-.17c-.787-1.063-2.58-1.3-3.174-2.1.277.049-.122-.676-.093-.874l-1.66-.862c.727.39.983.087,1.368-.094a9.907,9.907,0,0,0-1.128-.568c.275.052.552.1.459-.217l-1.884-.765a1.357,1.357,0,0,0,.3.412,4.808,4.808,0,0,1-1.573-1.465c.156-.071.433-.022.588-.093.11.68.618.626,1.051.608-1.026-.8-.171-.284-.438-.893-.694-.586-1.357-.462-1.417-.068a3.672,3.672,0,0,0-1.918-1.478l.539-.25-.852-.516,1.065.05c-1.133-1.479-.923.429-2.256-1.14l.339-.338c-.728-.393-1.514-.007-1.565-.814-.787-.3.508,1.338-.925.217a3.95,3.95,0,0,0-.76-1.383c-.586-.235-.079.686.244.887-2.2-1.666-.087-2.265-2.353-3.454.374.8-1.186.175.3,1.484-.908-.433-.885-1.719-1.993-2.015l.917.006a2.678,2.678,0,0,0-.909-.434l.4-.272c-1.5-.239-1.4-1.778-2.722-1.514.993-.25-.708-.567-.828-1.119,1.178.254,2.122,1.921,2.79,1.47-.174-.475-.762-.487-.929-.946a2.93,2.93,0,0,0,1.012.261c-.82-1.331-2.135-1.282-2.98-1.763l1.357.972c-.668.452-.653-.4-1.442-.283-.312-.836-1.226-.855-1.532-1.488.125.128.192.079.32.2-1.335-1.2-.77-2.415-1.277-2.912-.441-.544-1.732-1.152-1.619-.6-.581-.24,1.925,1.451.429,1.454.1-1.5-1.873-1.127-2.929-3.186,1.022.374.063-.839.936-.464a2.375,2.375,0,0,0-1.606-.654l.035-.466c-1.625-.382-.778.278-2.644-.855.725.29-.223-.94.36-.746a3.369,3.369,0,0,0-1.374-.876l.1.018c-1.69-1.332-.927-1.508-2.641-2.563l-.027.281c-2.285-1.349-4.355-3.791-6.438-5.45l.53.766c-.118-.27-1.536-1-1.866-1.8a2.607,2.607,0,0,1,.5.36c.169-.182.215-.648-.192-1.129l-.458.082.036-.373c-.688-.674-.2.558-.891-.117.41-1.111-2.871-2.983-2.75-4.192-1.06.062,1.224,1.342.174,1.313a2.424,2.424,0,0,0-.509-.949l-.2.46c-1.9-2.2-2.363-3.269-4.285-5.026l.151.007a1.889,1.889,0,0,0-1.535-1.091c.03-.279.588.116.48-.263-2.067-.364-1.636-2.868-2.976-3.019.813-.527,0-2.61,1.188-2.468l-.558-.394c.632-.253,1.493,1.459,2.26,1.3l.987,1.907c.131-.2.641-.186.463-.476.376.358.725.656.5-.045a21.562,21.562,0,0,0,4.82,5.816,37.171,37.171,0,0,1,5.269,5.342c.282.2.309-.085.327-.272.2,1.035.856.391,1.279.683l.305,1.506c.579.2.478-.268.635-.357,1.938,1.631,3.106,3.869,4.963,4.925.241.655-.634.368-.089,1.027-.179-1.405,2.126,1.426,2.055.491-.1,1.214,2.089,2.253.839,2.894.691.756,1.031.2.905-.083a6.879,6.879,0,0,0,2.557,1.872c.253.653,4.24,3.452,4.293,4.854-.06-.933.286-.192,1,.084l-.045-.816,1.107,1.1c.275.177.324.255.285.289.171.2-.286.184.1.74.765.739,1.034.555,1.684.743l-.06-.168.578.445c.383.368-1.814-.863-.733.5.135-.09,1.441.071,1.491.665-.639-.611-.845-.263-.723.072l.9.858.218-.774c2.633,2.392,4.992,5.261,7.908,7.714-.5.407,2,1.789,1.08,2.219l-.047-.16c-.765-.555-.319.693.332,1.12-.389-.733,1.742.281.382-1.087l1.442.673c1.9-.723,2.884,2.74,5.024,3.794a.4.4,0,0,0-.323.012c1.936.9,3.1,3.265,3.655,3.365l-.211.464a5.265,5.265,0,0,1,3.391,2.211c-.077.039-.356-.013-.18.27a3.233,3.233,0,0,1,2.269,1.1l-.153.074,1.746,1.34c-1.065,1.076,3.544,1.733,2.912,3.337.64-.046,1.972.879,2.669,1.182-.041.05-.053.127-.01.254,1.209-.047,1.7,1.734,2.5,2.25.609.241.581-.113.552-.467.5,1.222,3.082,1.565,3.237,2.038.645.6-.14.63-.182,1.027,1.122.719.763-1.14,1.724.406-.2-.079-.534-.277-.482-.12.44.511.189,2.539.95,2.7l-.16-.477c1.223.483,1.42,2.732,2.274,2.1l.233-.42c1.236,1.767.831.416,2.144,2.145l-.074.041c.8.506.8,1.257,1.675.975l-.183-.275a20.269,20.269,0,0,1,1.9,1.535c.158.031.684.3.706.52.468-.435,2.352,1.477,2.741,1.829-.8-.509-.631-.034-.595.32a1.277,1.277,0,0,1,1.47.894l.088-.1a1.73,1.73,0,0,1,2.439-.077c-.262-.055-.6-.23-.586-.015s.41.294.543.321c.012.212-.458.012-.508.319,1.313.054,1.432,1.027,2.781,1.72-.53-.107-.313.252-.361.559.687-.6,1.086,1.8,1.408.6,1.819,2.282,5.8,4.461,6.222,5.686.031.425,1.025.512,1.435.8l-.312.255c1.6.3,1.053.453,2.849.9-.855-.055-.767.278-.454.971l1.442.056-.219.592a2.335,2.335,0,0,1,1.238.865c-.206-.145-.13-.024-.189.07.744-.485,2.325.775,2.842.655-.123.925,1.234.639,1.037,1.444a2.744,2.744,0,0,1,.685.141c.037-.415.223-.774.481-.372l.1.053-.148.481a6.8,6.8,0,0,1,1.131.6,1.857,1.857,0,0,1-.231-.46c.117.172.21.347.305.511a1.206,1.206,0,0,1,.131.1.262.262,0,0,1-.1-.041,1.224,1.224,0,0,0,.8.582c.852,1.518,3.578,1.365,4.4,3.176-.154-.236-.436-.485-.63-.419,1.258.835,2.048,2.219,3.06,2.485l.227-.381a13.77,13.77,0,0,1,2.529,1.393l.359-.36c.934.882,3.715,1.85,3.709,3.109.508-.124,1.4,1.1,2.087,1.416l-.087.4a5.844,5.844,0,0,0,1.827,1.1c1.1,1.725,3.08,2.122,4.448,3.125l-.056.1,1.593.756c-.588.017.426.007.8.366a3.432,3.432,0,0,1,1.632,1.28l.9.62c-1.178-.472-.272.484-.488.872l.8.109c.1.326-.59.024-.217.386.537.073,1.685.855,2.329.732a.894.894,0,0,0-.183-.488c-.068-.01-.06-.013-.01-.016l-.026-.046.04.045a1.055,1.055,0,0,0,.269-.033c.666.561.509.242.609.064.4,1.1,1.147,1.033,1.28,2.1-.3-1.3,1.9,1.252,1.9.206.186.966.4.308.429,1.043-.749-.727-2-.789-2.89-1.013l.428.789c-.934.331-1.357-1.258-1.931-1.316.388.037.894.594.806.748l.189-.6a5.309,5.309,0,0,0-2.781-1.21c.531.594-1.021-.242-.809.413l.565.286c.106.327-.511.138-.912.086-1.366-1.439-4.614-3.127-4.889-3.913a2.344,2.344,0,0,0,1.33.718l-.606-.717c.63.41.791,1.159,1.836,1.613.084-.405,1.078-.376.708-1.259-1.388-1.643-2.066-.182-4.081-1.733-.269-.04.832-.191-.417-.795-1.65-.662-3.232-.686-3.753-.032.748.215,2.242.646,2.046,1.244-.747-.213-1.864-.8-2.164-.529-.175-.968,1.251.6.811-.4a1.946,1.946,0,0,0-1.018-.256c.46-.037-.068-.637-.091-.849-1.346-.929-1.93-1.7-3.34-2.737-.011-.132-.03-.414.12-.519-.821-.344-2.482-.237-2.5.288-.842-.556-.675-.846-1.5-1.188.721,1.273-.152-.235-.7.2-.769-.44-.043-.427-.274-.779-.167-.03-.6-.057-.73.07-.114-.705,1.7-.433,1.563-1.257a12.647,12.647,0,0,0-1.3-2.259,4.566,4.566,0,0,0-2.073,3.033c-.306.265-.413-.8-.7-1.057-.506-1.129-1.708-.593-2.3-1.319l.8.132a2.89,2.89,0,0,0-1.593-.785c.115-.19,1.31-.473,1.133-.92-1.275-1.055-3.336-1.044-3.682-.474l2.509.967c-.283.478-1.825-.634-2.168-.063l-1.777-1.527c.253.159,1.089.569,1,.127-.836-.569-.362-.38-.741-.973a26.639,26.639,0,0,0,5.424-.223l-1.219-.426-.035-.427c-1.555-.585-4.11.243-4.817.435-.646-.639.379-1.358.7-1.408-1.408-1.09-2.514.246-3.863-.937l.379.592c-.416-.164-1.511-1.252-1.519-.987-.085-.449.134-1.2.587-1.125l-2.012-.093c.262.048.76-.762.952-.833-.49-.408-1.591.184-1.367.544-.555-1.267-.551-.8-.837-2.013-.339-.169-.632.785-.483,1.024a2.787,2.787,0,0,1-1.4-1c1.374.513,1.695-1.39,2.379-1.782l-4.24.376a5.478,5.478,0,0,0,1.035-.7c-.751.488-3.555-1.458-4.812-2.539l.205.144c.46-.015-.529-1.049-1.187-1.186.193-.07.264.054.469.2-.463-1.15-1.992.082-2.4-1.165.763.682,1.148.55,1.327.269-.87-.283-2.2-1.713-2.534-.724-.291-.483-.76-.685-.39-1.031l-2.037-.814c.193.015.491-.121.056-.539.835.8,2.343.79,2.4,1.646.432-.44.3-.95,1.089-1-1.968-1.137-3.639-1.1-5.236-1.426l-1.27-1.524-.254.158.2-.732c-.3-.032-.521-.029-.515-.106s.117-.107.263-.125a1.371,1.371,0,0,0-.5-.178c.187-.321.748-.423,1.3-.48.051.208.1.418.168.621.543-.029,1.01-.132.74-.632-.089-.008-.2-.032-.321-.055.374-.046.639-.118.565-.3l-1.414-.669a7.249,7.249,0,0,1,.217.837c-1.051-.237-2.277-.485-1.934.387l-.622-1.016a11.413,11.413,0,0,1-2.892-.9c.094-.236.577-.122.469-.435-1.476-.154-1.669-2.483-2.347-2.129-.876-.469-.729.2-1.345-.035.078-.037.229-.116.1-.235l-.917-.079c-.109-.316.766.157.268-.511a6.637,6.637,0,0,1-2.934-1.834c-1.386-.962-.13,1.187-1.163.226a1.226,1.226,0,0,0-.331-1.507c-.558-.084-.73.191-1.473-.172l.473-.432c-.589-.44-1.125-.722-.8-1.074a1.754,1.754,0,0,1-1.115-.744c-1.095-.454-.245,1.449-.212,1.793-.528-1.034-1.3-1.307-1.266-2.253l.871.483c-1.068-1.866-2.144-.578-1.964-2.153.517.481,1.409.769,1.326.252l-1.021-.406c.021-.2.535.281.3-.154a8.609,8.609,0,0,0-1.365-.233l.038-.02-1.5-1.1c.253.243.48.128.227-.115l-1.167-.533c.4.121.239-.263-.109-.683-1.069-1.134-1.954.232-2.438-1.008.13.125.2.084.332.206l-.283-.6c-1.036.883-2.925-2.245-3.967-1.365-.306-.957.178-.271,1.5,0l-.459-.88A5.538,5.538,0,0,0,4331.434-3034.913Zm9.323,7.534c-.036.331.6.448.882.547C4341.381-3027.242,4341.375-3027.582,4340.757-3027.379Zm17.873,12.406c.161.35.356.6.626.6A1.662,1.662,0,0,0,4358.63-3014.973Zm51.161,32.922c-.3-.3-.43-.48-.04,0l.039,0Zm.922.862c-.381-.124-.463-.282-.461-.43.248.2.49.356.638.309,0,.083-.032.14-.178.122Zm-106.785-83.345c-.214-.01-.418-.03.089.251l-.091-.252Z"/>
  </g>
</svg>
