<svg xmlns="http://www.w3.org/2000/svg" width="219.106" height="14.019" preserveAspectRatio="none" viewBox="0 0 219.106 14.019">
  <g id="Group_13695" data-name="Group 13695" transform="matrix(1, 0.017, -0.017, 1, -2399.123, 2967.667)">
    <path id="Path_9547" data-name="Path 9547" d="M2446.773-3000.952c-1.376-.531-2.747.216-3.533.585-.527-.18.486-1.019-1.063-.76-2.185.316.351.969-.962,1.161l-.9-.673c-1.7.573-2.911.127-4.308.075a1.166,1.166,0,0,0-.563.216c-1.472-.264-3.174.758-4.285.557.272-.149-.616-.421-.741-.587l-2.058.48c.91-.206.9-.6,1.083-1a12.356,12.356,0,0,0-1.385.345c.273-.148.544-.3.223-.47l-2.173.716a1.711,1.711,0,0,0,.569.1,6.179,6.179,0,0,1-2.443-.009c.077-.159.348-.31.423-.468.613.425,1,.042,1.351-.266-1.476.108-.361-.092-1.051-.359-1.034.04-1.5.582-1.245.911a4.715,4.715,0,0,0-2.744.215l.26-.549-1.11.2.932-.685c-2.088-.318-.446.942-2.769.693l.023-.479c-.912.206-1.272,1.022-1.937.464-.893.31,1.456.638-.606.786a4.85,4.85,0,0,0-1.7-.481c-.67.232.464.552.889.476-3.118.3-1.825-1.585-4.635-.889.929.32-.85.943,1.4.873-1.091.31-2.069-.638-3.22-.091l.767-.627a3.355,3.355,0,0,0-1.093.311l.121-.472c-1.433.859-2.547-.329-3.435.772.626-.864-1.029.076-1.56-.242,1.174-.626,3.257-.065,3.459-.853-.515-.225-1.012.171-1.509-.047a3.483,3.483,0,0,0,1.044-.507c-1.721-.4-2.772.539-3.846.771l1.883-.228c-.2.787-.851.16-1.415.786-.912-.4-1.681.232-2.429-.009.2,0,.221-.077.424-.078-2.042.069-2.531-1.195-3.341-1.2-.79-.082-2.331.382-1.8.7-.667.234,2.725-.3,1.5.744-1.094-1.145-2.425.5-4.914-.242,1.132-.444-.612-.645.4-.985a2.923,2.923,0,0,0-1.832.651l-.342-.358c-1.63.862-.416.735-2.837,1.237.822-.307-.927-.507-.3-.783a4.31,4.31,0,0,0-1.814.351l.091-.054c-2.434.252-1.955-.412-4.188.052l.2.218c-2.928.671-6.555.369-9.564.721l1.042.155c-.312-.1-2.038.4-2.947.078a3.4,3.4,0,0,1,.692-.107c-.012-.248-.351-.606-1.066-.651l-.3.385-.273-.286c-1.095.021.289.535-.807.556-.572-1.069-4.709-.028-5.6-.959-.793.8,2.067.06,1.206.793a3.023,3.023,0,0,0-1.176-.3l.216.463c-3.3-.186-4.54-.556-7.5-.384l.125-.1a2.4,2.4,0,0,0-2.106.361c-.205-.214.559-.345.163-.529-1.927,1.248-3.646-.79-4.827.078.207-.953-2.156-1.8-1.1-2.561l-.765.133c.289-.633,2.382-.077,2.858-.741l2.353.6c-.061-.233.354-.592-.026-.663.592-.027,1.114-.074.357-.392,5.624,1.454,11.594-.234,17.172.475.385-.064.18-.28.042-.423,1,.579,1.006-.341,1.584-.439l1.464.833c.628-.275.169-.529.224-.7,2.884-.246,5.632.534,7.988-.037.721.293-.22.708.75.789-1.271-.867,2.873-.493,2.068-1.1.886.932,3.5.119,2.995,1.456,1.165.046,1-.589.672-.7a9.1,9.1,0,0,0,3.586-.447c.724.291,6.224-.483,7.372.485-.785-.627.085-.338.9-.639l-.68-.553,1.784.018c.368-.065.47-.043.464.009.3.025-.092.331.669.457a3.148,3.148,0,0,0,1.981-.621l-.182-.081.829-.074c.608,0-2.183.622-.219.866.042-.158,1.255-.941,1.762-.544-1.011,0-.909.391-.546.55l1.417.006-.424-.711c4.066-.061,8.268.35,12.616.2-.1.636,3.064-.044,2.618.9l-.162-.086c-1.072.111.265.726,1.14.6-.891-.274,1.686-.974-.513-1.057l1.734-.484c1.059-1.815,4.544.038,7.165-.6a.433.433,0,0,0-.266.226c2.333-.629,5.123.356,5.673.057l.172.486a6.77,6.77,0,0,1,4.573-.624c-.037.08-.316.228.049.322a4.018,4.018,0,0,1,2.773-.692l-.076.156,2.51-.143c-.113,1.512,4.356-1.032,5.008.59.518-.455,2.361-.637,3.191-.869,0,.064.048.131.18.2,1.014-.838,2.764.187,3.838.068.708-.212.422-.463.136-.714,1.337.606,3.843-.81,4.329-.551,1,.037.341.571.6.9,1.51-.182-.17-1.363,1.807-.81-.237.072-.671.136-.51.221.762.1,2.027,1.809,2.814,1.441l-.489-.259c1.426-.425,3.239,1.151,3.526.124l-.1-.472c2.375.569,1.035-.211,3.447.28l-.035.078c1.073-.122,1.614.456,2.183-.32l-.361-.095a26.483,26.483,0,0,1,2.788-.033c.162-.077.821-.207,1-.052.1-.634,3.148-.367,3.746-.346-1.074.12-.584.378-.3.628a1.589,1.589,0,0,1,1.945-.24c0-.044,0-.088.007-.133a1.914,1.914,0,0,1,2.115-1.594c-.273.122-.7.2-.533.357s.575-.03.714-.092c.162.157-.4.3-.224.567,1.208-.783,2.009-.1,3.708-.413-.549.251-.1.394.076.662.187-.9,2.253.719,1.686-.419,3.247.611,8.361-.155,9.6.558.327.315,1.282-.232,1.852-.261l-.1.393c1.649-.752,1.265-.3,3.2-1.06-.811.486-.5.693.267,1.043l1.342-.847.215.6a3.039,3.039,0,0,1,1.722-.086c-.287.014-.134.062-.123.172.337-.85,2.646-.808,3.032-1.218.529.808,1.565-.245,1.942.514a3.412,3.412,0,0,1,.722-.305c-.254-.351-.333-.75.179-.588.046-.009.081-.009.125-.016l.2.471a8.851,8.851,0,0,1,1.445-.211,2.175,2.175,0,0,1-.528-.225c.225.066.431.149.63.221.064,0,.127,0,.191,0a.341.341,0,0,1-.117.027,1.581,1.581,0,0,0,1.127-.023c1.819.69,4.208-1.1,6.2-.151-.3-.095-.73-.129-.863.044,1.724-.088,3.39.551,4.5.159l-.049-.441a17.777,17.777,0,0,1,3.271-.4l.087-.5c1.457.148,4.68-.74,5.522.273.387-.41,2.036.067,2.883-.087l.19.378a7.576,7.576,0,0,0,2.431-.182c2.169.751,4.273-.093,6.213-.085l.011.111,1.985-.325c-.537.361.4-.25.989-.168a4.461,4.461,0,0,1,2.368.1l1.248-.011c-1.413.294.062.552.114.994l.823-.375c.311.206-.537.361.049.441.551-.25,2.137-.275,2.661-.747a1.027,1.027,0,0,0-.49-.292c-.07.03-.065.024-.021-.008-.019-.006-.033-.014-.053-.022.022.005.044.01.067.013a1.242,1.242,0,0,0,.23-.181c.991.073.637-.1.614-.3,1.09.666,1.751.181,2.568.975-1.12-.888,2.6-.072,1.918-.926.8.682.579.019,1.079.6-1.176-.162-2.4.512-3.373.84l.914.4c-.662.81-2.091-.244-2.667.039.387-.194,1.224-.03,1.242.146l-.215-.6a6.825,6.825,0,0,0-3.394.617c.885.178-1.113.391-.487.8l.715-.092c.313.206-.388.408-.8.6-2.216-.386-6.35.1-7.124-.357a3.053,3.053,0,0,0,1.712-.2l-1.037-.226c.857-.042,1.5.481,2.772.248-.188-.379.759-.929-.166-1.437-2.378-.544-2.047,1.05-4.946.976-.276.126.647-.643-.914-.4-1.972.433-3.454,1.344-3.5,2.179.835-.266,2.505-.795,2.72-.2-.834.267-2.257.449-2.354.844-.8-.681,1.558-.246.483-.8a2.415,2.415,0,0,0-1.112.391c.4-.3-.486-.475-.648-.634-1.863.04-2.917-.24-4.913-.252-.1-.1-.3-.317-.237-.49-.989.216-2.446,1.3-2.109,1.726-1.148.058-1.188-.274-2.175-.055,1.518.589-.3-.1-.507.582-1,.107-.328-.317-.776-.461-.173.076-.585.31-.622.493-.581-.5,1.269-1.366.586-1.943a15.6,15.6,0,0,0-2.724-1.032,4.06,4.06,0,0,0,.152,3.671c-.1.4-.918-.394-1.351-.43-1.228-.6-1.963.546-3,.321l.824-.376a3.672,3.672,0,0,0-1.987.325c-.025-.222.874-1.163.408-1.415-1.884-.071-3.754,1.2-3.677,1.86l2.942-.76c.067.552-2.093.607-2.015,1.27l-2.658-.131c.339-.027,1.378-.211.992-.506-1.149.058-.588-.081-1.338-.321a30.782,30.782,0,0,0,4.79-3.479l-1.406.4-.323-.318c-1.823.482-3.579,2.7-4.089,3.277-1.023-.114-.588-1.308-.328-1.545-2.03-.008-2.112,1.724-4.148,1.607l.752.24c-.49.123-2.231-.075-2.056.141-.386-.3-.713-1.039-.248-1.25l-1.882,1.157c.27-.124.159-1.069.283-1.242-.726-.019-1.309,1.129-.857,1.272-1.379-.652-1.05-.286-2.153-1.063-.424.077-.023,1.008.277,1.1a3.588,3.588,0,0,1-1.96.08c1.594-.447.559-2.141.9-2.873l-3.553,2.92a5.062,5.062,0,0,0,.437-1.193c-.334.848-4.21,1.054-6.1.982l.285-.013c.4-.3-1.212-.494-1.9-.182.124-.176.275-.124.56-.139-1.225-.6-1.72,1.316-2.962.6,1.163.05,1.413-.295,1.374-.626-.976.327-3.173.051-2.77,1.031-.6-.192-1.162-.054-1.079-.557l-2.388.65c.182-.11.35-.4-.333-.454,1.31.1,2.645-.86,3.3-.228.071-.614-.4-.93.259-1.463-2.563.354-4.022,1.434-5.668,2.185l-2.214-.386-.112.283-.346-.7c-.29.168-.482.311-.531.248s.027-.157.143-.264a1.684,1.684,0,0,0-.572.184c-.065-.367.358-.8.805-1.2.194.128.392.259.593.376.46-.364.8-.738.2-.957-.085.05-.2.1-.324.16.3-.272.483-.494.284-.592l-1.734.381a8.227,8.227,0,0,1,.792.506c-1.1.489-2.361,1.082-1.432,1.534l-1.279-.384a14.236,14.236,0,0,1-3.2,1.154c-.087-.241.419-.463.1-.634-1.409.825-3.263-.843-3.6-.138-1.109.2-.495.62-1.206.833.042-.079.116-.235-.086-.242l-.861.525c-.325-.173.785-.368-.136-.564a8.862,8.862,0,0,1-3.9.491c-1.91.167.752.987-.849.926a1.36,1.36,0,0,0-1.388-.931c-.548.3-.5.619-1.408.824l.095-.635c-.833.048-1.507.182-1.484-.3a2.235,2.235,0,0,1-1.515.158c-1.284.366.851,1.261,1.131,1.5-1.216-.444-2.09-.147-2.752-.892l1.11-.2c-2.3-.726-2.282.951-3.286-.363.8.03,1.787-.33,1.335-.669l-1.185.354c-.128-.164.671-.134.149-.314a10.336,10.336,0,0,0-1.354.708l.018-.039-2.11.158c.4.016.51-.219.111-.236l-1.4.368c.432-.17.012-.355-.6-.442-1.764-.148-1.511,1.463-2.848.849.205.008.237-.072.439-.064l-.69-.266c-.234,1.346-4.185.239-4.42,1.587-.977-.517-.051-.321,1.285-.988l-1.05-.36A7.1,7.1,0,0,0,2446.773-3000.952Zm13.623-.434c.213.276.85-.047,1.168-.156C2461.039-3001.687,2460.784-3001.941,2460.4-3001.386Zm24.672-1.984a1.062,1.062,0,0,0,.988.077A2.159,2.159,0,0,0,2485.068-3003.37Zm69.225-4.926c-.478-.077-.717-.145-.035.025a.205.205,0,0,1,.035-.024Zm1.429.172c-.438.119-.619.036-.714-.086.367.025.692.009.8-.115.057.066.062.132-.087.2Zm-154.858,4c-.185.142-.37.271.271.118l-.273-.117Z" fill="#161615"/>
  </g>
</svg>
