<svg xmlns="http://www.w3.org/2000/svg" viewBox="0 0 166.72 115.7"><defs><style>.cls-1{fill:#fff;}</style></defs><title>Asset 3</title><g id="Layer_2" data-name="Layer 2"><g id="Layer_1-2" data-name="Layer 1"><path class="cls-1" d="M0,115.7V0H166.72C163,2.68,159.39,5,156.1,7a75.1,75.1,0,0,1-9.32,4.78c-17.33,7.2-32.53,23.71-44.75,37h0c-4.19,4.54-8.14,8.83-11.64,12.15-3.88,3.67-6.84,5.79-9.31,6.69C73.8,70.2,61.68,75.11,49.47,81,42.39,84.44,36,87.86,30.34,91.2A119.77,119.77,0,0,0,14,102.54c-4.76,4-9.08,8.3-13.26,12.42h0l-.68.67,0,0v0Z"/></g></g></svg>