<svg xmlns="http://www.w3.org/2000/svg" viewBox="0 0 570 148.93"><defs><style>.cls-1{fill:#67b236;}</style></defs><title>banner-style-2-bottom</title><g id="Layer_2" data-name="Layer 2"><g id="Layer_1-2" data-name="Layer 1"><path class="cls-1" d="M51.38,147.65c-8.24,1.05-14,1-17.22.59-.81-.12-1.62-.24-2.43-.39-4.38-.72-9.37-1.76-14.52-2.85A140.16,140.16,0,0,1,0,140.28v8.63H32.33l0,0,2.43,0h7.09c-.35,0,2.1,0,1.38,0H570V0c-9.51,2.62-22.5,6.21-34.64,9-6.52,1.48-12.18,2.57-17.18,3.34a99,99,0,0,1-14.59,1.33c-1,0-1.91-.08-2.78-.08-1.39-.13-2.88-.13-4.45-.13-2.85,0-6.06.15-9.36.42s-6.73.68-10.3,1.2c-7,1-14.41,2.5-21.56,4.28a185.12,185.12,0,0,0-19.79,6.06c-3,1.12-5.72,2.27-8.08,3.41A49.34,49.34,0,0,0,421,32.31a20.8,20.8,0,0,1-4.25,2.19,32.3,32.3,0,0,1-5,1.43,60.6,60.6,0,0,1-12,1.07,154.84,154.84,0,0,1-28.14-3.17c-10.3-2-19.7-4.46-25.77-6.21A40.4,40.4,0,0,0,335,26.41a102.3,102.3,0,0,0-11.32.67c-4,.47-8.41,1.13-13,2a271.5,271.5,0,0,0-28,6.92,247.07,247.07,0,0,0-26.09,9.48c-4,1.73-7.54,3.46-10.64,5.16a63.68,63.68,0,0,0-8.23,5.15C225.77,65,208,69,193.77,72.2c-4.88,1.1-9.48,2.13-13.22,3.25-4.15,1.23-6.84,2.44-8.46,3.81C167.31,83.29,159,89.8,149.88,96c-5.26,3.58-10.26,6.7-14.88,9.29a97.5,97.5,0,0,1-14.55,6.85c-4.75,1.7-9.5,3-14.09,4.27-3.21.89-6.53,1.83-9.74,2.83a84.91,84.91,0,0,0-9.54,3.6A59.66,59.66,0,0,0,77.81,128a53.83,53.83,0,0,0-4.49,3.45c-1.52,1.28-3,2.68-4.44,4.14-2.1,2.2-4.79,4.28-6.68,6.21S56.23,147,51.38,147.65Z"/></g></g></svg>