<svg xmlns="http://www.w3.org/2000/svg" preserveAspectRatio="none" width="258.666" height="199.593" viewBox="0 0 258.666 199.593">
  <g id="Group_13699" data-name="Group 13699" transform="translate(-2389.155 5039.29)">
    <path id="Path_9679" data-name="Path 9679" d="M2514.111-4969.32a9.966,9.966,0,0,0,4.05-3.6c.758-.3-.061,1.254,1.757-.261,2.6-2.09-.972-.519.589-1.777l1.507-.188c1.842-1.9,3.624-2.541,5.422-3.663a2.418,2.418,0,0,0,.6-.655c2.005-1,3.626-3.3,5.141-4.056-.267.355,1-.155,1.247-.117q1.17-1.079,2.389-2.087c-1.073.9-.852,1.223-.888,1.715.557-.456,1.1-.914,1.614-1.4-.278.343-.55.687-.047.579l2.449-2.331a3.819,3.819,0,0,0-.788.366,14.167,14.167,0,0,1,3.172-1.924c-.019.2-.294.542-.312.738a1.969,1.969,0,0,0-1.613,1.3c1.855-1.258.515-.206,1.543-.521,1.317-.85,1.644-1.684,1.151-1.769a10.743,10.743,0,0,0,3.449-2.355l-.064.681,1.34-1.049-.865,1.331c2.859-1.372.107-1.169,3.24-2.788l.2.435c1.08-.9,1.146-1.9,2.28-1.933,1.005-.977-2.2.593.4-1.167a10.747,10.747,0,0,0,2.482-.85c.775-.7-.881-.138-1.407.246,3.984-2.588,3.177.031,6.558-2.67-1.381.408.676-1.464-2.265.272,1.3-1.086,3.041-.979,4.3-2.318l-.718,1.124a7.352,7.352,0,0,0,1.3-1.088l.063.507c1.491-1.825,3.518-1.6,4.181-3.239-.429,1.233,1.325-.833,2.173-.945-1.262,1.429-4.274,2.48-4.175,3.327.785-.183,1.257-.9,2.015-1.078a6.88,6.88,0,0,0-1.142,1.224c2.456-.921,3.407-2.535,4.721-3.541l-2.382,1.6c-.1-.848,1.05-.775,1.507-1.751,1.377-.341,2.136-1.42,3.253-1.728-.275.137-.262.222-.536.364,2.722-1.485,3.946-.695,5.035-1.256,1.1-.476,2.965-1.964,2.111-1.881.794-.674-3.535,2.167-2.346.375,1.98.266,3.048-2.137,6.726-3.2-1.331,1.188,1.1.156-.111,1.166a6.091,6.091,0,0,0,2.183-1.862l.613.086c1.831-1.9.231-.98,3.305-3.068-1,.811,1.486-.142.741.515a9.6,9.6,0,0,0,2.339-1.5l-.1.109c3.232-1.808,2.848-.892,5.717-2.762l-.366-.069a58.3,58.3,0,0,1,6.321-3.521l3.347-1.659c1.116-.514,2.2-1.032,3.215-1.564l-1.513.482c.475-.091,2.688-1.593,4.081-1.84a7.787,7.787,0,0,1-.924.514c.111.222.721.35,1.733-.037l.273-.537.488.1c1.518-.676-.6-.322.915-1,1.2.649,6.574-2.8,8.149-2.459.812-1.223-2.9,1.181-1.969-.017a6.514,6.514,0,0,0,1.749-.426l-.47-.3c1.166-.451,2.157-.814,3.051-1.136l2.5-.8a53.816,53.816,0,0,0,5.138-1.933l-.141.167a5.243,5.243,0,0,0,2.854-1.5c.362.089-.672.632-.05.587,2.3-2.232,5.414-1.253,6.79-2.717.026,1.012,3.628.519,2.394,1.818l1.032-.542c-.2.756-3.323,1.372-3.772,2.258l-3.508.719c.165.186-.3.75.261.61-.823.349-1.54.677-.369.564a60.891,60.891,0,0,0-12.257,4.226,109.742,109.742,0,0,1-11.853,5.141c-.508.289-.143.367.1.417-1.606.06-1.264.914-2.025,1.348l-2.349.1c-.764.627-.028.588-.036.782-1.964.939-3.909,1.773-5.78,2.54a28.5,28.5,0,0,0-5.114,2.574c-1.1.2.011-.789-1.345-.237,2.087-.028-3.714,2.3-2.363,2.339-1.594-.277-4.825,2.151-4.692.609-1.612.711-1.117,1.179-.624,1.067a18.683,18.683,0,0,0-4.623,2.861c-1.1.24-8.119,4.742-10.092,4.672,1.333.017.038.361-.912,1.191l1.159.024-2.4,1.217c-.463.313-.609.364-.624.314-.414.185-.027-.359-1.1.055a6.46,6.46,0,0,0-2.32,2.01l.275-.062-1.053.678c-.8.446,2.581-2.166-.113-.931.018.172-1.211,1.762-2.061,1.784,1.328-.743,1.012-1.018.462-.891l-1.866,1.042.889.317c-2.654,1.528-5.409,2.978-8.208,4.465-1.4.747-2.813,1.488-4.217,2.28-1.383.825-2.769,1.674-4.148,2.56-.182-.634-3.924,2.444-3.82,1.277l.251-.052c1.326-.94-.7-.421-1.77.379,1.286-.463-1.683,2.168,1.193.512l-1.99,1.779c-.222,1.2-1.685,2.081-3.478,2.99a22.6,22.6,0,0,0-5.384,3.226.68.68,0,0,0,.216-.414c-2.6,2.469-6.634,3.946-7.17,4.656l-.476-.268a14.975,14.975,0,0,1-5.424,4.321c0-.1.274-.453-.236-.23a9.449,9.449,0,0,1-3.084,2.924l.006-.2-3,2.309c-.705-1.355-4.774,4.657-6.488,3.884-.38.828-2.542,2.587-3.429,3.5-.039-.052-.135-.065-.335,0a4.857,4.857,0,0,1-2.2,1.848,16.654,16.654,0,0,0-2.5,1.529c-.726.82-.238.763.251.706-1.954.73-4.125,4.171-4.855,4.4-1.225.888-.746-.15-1.245-.182-1.7,1.528,1.01.944-1.683,2.306.241-.275.722-.724.479-.644-.971.611-3.506.4-4.23,1.418l.741-.24c-1.446,1.653-4.595,2.031-4.289,3.151l.405.278c-3.114,1.82-1.077,1.158-4.188,3.078l-.008-.1c-1.176,1.124-2.164,1.186-2.35,2.344l.479-.271q-1.566,1.4-3.228,2.694c-.142.216-.829.948-1.134,1,.278.591-3.439,3.3-4.151,3.854,1.177-1.121.444-.853-.048-.772a3.568,3.568,0,0,1-2.081,2.093.819.819,0,0,1,.076.11c.5.83-.111,2.324-1.374,3.338.23-.366.662-.849.374-.807s-.631.6-.748.782c-.284.041.262-.627-.109-.66-.864,1.807-2.205,2.081-3.925,4.011.459-.739-.143-.4-.513-.43.37.871-3.015,1.7-1.636,2a61.236,61.236,0,0,0-6.419,5.373c-2,1.924-3.726,3.579-4.643,3.955-.569.1-1.25,1.5-1.854,2.114l-.152-.4c-1.3,2.266-1.189,1.532-2.79,4.1.559-1.2.077-1.027-1-.491l-.9,2.014-.643-.218a6.808,6.808,0,0,1-1.829,1.849c.305-.308.1-.184.017-.252.183.941-2.272,3.4-2.4,4.113-1.116-.018-1.483,1.856-2.409,1.713a6.777,6.777,0,0,1-.551.994c.513-.019.872.185.218.617l-.119.145-.537-.128a19.927,19.927,0,0,1-1.38,1.7,4.234,4.234,0,0,1,.714-.4c-.283.193-.558.355-.819.517l-.2.2a.743.743,0,0,1,.1-.144,3.533,3.533,0,0,0-1.175,1.225c-2.4,1.475-3.7,5.27-6.421,6.787.378-.266.829-.724.853-.983-1.7,1.962-3.849,3.373-4.7,4.876l.368.253a40.346,40.346,0,0,1-3.043,3.9l.275.444c-1.59,1.514-4.218,5.69-5.817,5.934-.116.686-2.048,2.274-2.771,3.34l-.465-.039a17.074,17.074,0,0,0-2.242,2.906c-2.681,1.983-4.111,4.956-6.011,7.169l-.095-.06-1.7,2.485c.259-.844-.222.61-.817,1.26a9.934,9.934,0,0,1-2.294,2.724l-1.158,1.479c1.1-1.856-.481-.283-.869-.506l-.484,1.213c-.449.236.227-.866-.384-.225-.324.811-1.791,2.7-1.917,3.618a1.762,1.762,0,0,0,.683-.391c.043-.1.043-.092.026-.02l.067-.048-.073.07a1.93,1.93,0,0,0-.075.387c-.985,1.122-.521.811-.343.914-1.535.862-1.778,1.948-3.159,2.412,1.739-.763-2.376,3.109-1.075,2.844-1.282.518-.557.671-1.482.9,1.228-1.286,1.847-3.151,2.507-4.511l-1.166.829c-.007-1.292,2.151-2.318,2.472-3.178-.213.581-1.125,1.467-1.278,1.376l.666.127a15.075,15.075,0,0,0,2.709-4.4c-.969.933.743-1.568-.162-1.091l-.6.9c-.453.239.05-.719.29-1.324,2.384-2.374,5.868-7.611,7.033-8.154a6.555,6.555,0,0,0-1.522,2.1c.382-.359.789-.7,1.181-1.049-.822,1-1.807,1.432-2.828,3.089.466.024,0,1.5,1.251.735,2.629-2.461,1.144-3.083,4.033-6.373.176-.4-.15,1.166,1.2-.787,1.606-2.548,2.381-4.858,1.806-5.472-.623,1.14-1.867,3.411-2.526,3.262.619-1.137,1.881-2.9,1.684-3.273,1.3-.473-1.35,1.96.124,1.092a5.081,5.081,0,0,0,.8-1.542c-.17.662.832-.241,1.109-.322,1.8-2.17,3.044-3.194,5.011-5.48.17-.046.533-.135.593.061.85-1.247,1.552-3.608.894-3.527,1.134-1.322,1.417-1.139,2.268-2.391-1.983,1.29.376-.267.1-.966.948-1.193.566-.148,1.13-.55.121-.245.374-.867.28-1.035.954-.3-.311,2.359.807,1.995a31.376,31.376,0,0,0,3.526-2.317,2.873,2.873,0,0,0-2.8-2.381c-.181-.387,1.226-.752,1.7-1.211,1.689-.949,1.621-2.574,2.846-3.577l-.577,1.185a8.393,8.393,0,0,0,1.809-2.446c.177.125-.07,1.794.585,1.451,2.021-2.009,3.134-4.907,2.583-5.3l-2.6,3.719c-.462-.316,1.8-2.692,1.249-3.079l2.926-2.783c-.342.386-1.321,1.642-.7,1.434,1.183-1.283.683-.578,1.65-1.218a50.337,50.337,0,0,0-2.635,7.632l1.2-1.8.566-.122c1.588-2.3,1.9-5.771,2.04-6.741,1.17-1.024,1.538.3,1.428.753,2.159-2.18,1.044-3.518,3.293-5.633l-.966.638c.437-.618,2.426-2.355,2.091-2.323.621-.2,1.471-.013,1.123.642.4-.955.794-1.925,1.232-2.851-.212.372.556.946.539,1.2.809-.74.669-2.187.074-1.821a15.447,15.447,0,0,1,3.094-1.464c.413-.5-.658-.765-1.054-.522a8.174,8.174,0,0,1,2.106-2.1c-1.454,1.991.833,2.16.951,3.055l1.939-5.854a4.282,4.282,0,0,0,.321,1.341c-.2-.976,3.93-5.171,6.053-7.08l-.3.306c-.122.322.293.1.807-.321a6.874,6.874,0,0,0,1.448-1.466c-.026.257-.231.368-.545.666,1.786-.771,1.094-2.72,2.974-3.425-1.356,1.128-1.415,1.64-1.154,1.852.9-1.227,3.573-3.218,2.48-3.561.809-.457,1.358-1.125,1.587-.657l2.3-2.892c-.137.267-.139.66.67.014-1.554,1.24-2.452,3.309-3.6,3.481.316.54,1.06.3.653,1.375,2.676-2.832,3.641-5.121,5.036-7.353l2.764-1.921-.053-.331.834.193c.232-.411.368-.705.465-.7s.068.148,0,.343a3.518,3.518,0,0,0,.553-.694c.308.224.088.969-.185,1.7-.309.086-.611.189-.915.3-.292.744-.44,1.372.376.945.064-.124.166-.284.266-.448-.166.509-.235.866.054.743.565-.685,1.165-1.333,1.76-1.985q-.629.218-1.245.368c.978-1.436,2.083-3.111.711-2.568l1.739-.931a29.768,29.768,0,0,1,3.03-3.982c.252.106-.2.767.277.593,1.142-2.006,4.34-2.473,4.3-3.355,1.177-1.225.2-.968.9-1.821,0,.1.008.3.249.11l.689-1.246c.486-.176-.7,1.049.5.317a17.093,17.093,0,0,1,4.351-4.053c2.2-1.9-1.5-.1.471-1.525a2.191,2.191,0,0,0,2.23-.533c.483-.744.231-.955,1.21-1.962l.26.6c.977-.807,1.711-1.536,1.965-1.128a5.04,5.04,0,0,1,1.733-1.523c1.336-1.481-1.765-.239-2.246-.174,1.73-.763,2.612-1.811,3.845-1.816l-1.224,1.184c3.2-1.526,2.2-2.879,4.174-2.731-.985.714-1.962,1.914-1.22,1.773l1.221-1.379c.249.017-.73.728,0,.394a20.172,20.172,0,0,0,1.222-1.826v.05l2.518-1.987c-.5.337-.5.628,0,.291l1.525-1.534c-.438.519.187.3.994-.164,2.263-1.426,1.042-2.535,3.043-3.2-.257.172-.253.267-.507.439l1-.388c-.465-1.322,5.046-3.878,4.592-5.209,1.5-.428.239.223-1.046,1.955l1.5-.623A16.211,16.211,0,0,0,2514.111-4969.32Zm-16.494,12.488c-.418-.029-1,.822-1.317,1.2C2497.018-4956,2497.473-4956.023,2497.617-4956.832Zm-27.993,24.935a2.344,2.344,0,0,0-1.17.93A4.827,4.827,0,0,0,2469.624-4931.9Zm-69.518,78.176c.505-.513.78-.752.013-.057l-.014.056Zm-1.469,1.574c.319-.593.551-.753.733-.786a2.569,2.569,0,0,0-.661,1.017c-.1.025-.158-.012-.073-.232ZM2574.8-5002.965c.183-.255.372-.5-.416.083l.417-.084Z" fill="#161615"/>
  </g>
</svg>
