<svg xmlns="http://www.w3.org/2000/svg" viewBox="0 0 306 19.16"><defs><style>.cls-1{fill:#fff;}</style></defs><title>mobile-edge-2</title><g id="Layer_2" data-name="Layer 2"><g id="Layer_1-2" data-name="Layer 1"><path id="mobile-edge-2" class="cls-1" d="M306,19.16H0V.72c2.5,1.66,5.16,3.3,8.13,5,8.35,4.78,14.21,8,19.42,9.83a26.14,26.14,0,0,0,8.7,1.59A24.39,24.39,0,0,0,38.73,17c3.65-.37,7.6-1.56,12.79-3.86a48,48,0,0,1,9-3A52.08,52.08,0,0,1,69.16,9c1.18-.06,2.42-.1,3.68-.1,4.4,0,8.71.38,13.27.79h0c4,.35,8,.71,12.23.8h1.15c8.79,0,17.86-2.14,27.46-4.41h0a205,205,0,0,1,24.2-4.67A116.91,116.91,0,0,1,165.4.49,81.52,81.52,0,0,1,183.85,2.6h0A50.25,50.25,0,0,0,194.59,4a40.37,40.37,0,0,0,11-1.67A82.08,82.08,0,0,1,223,.15C225.4,0,227.91,0,230.52,0c5,0,10.24.18,15.61.53,8.22.54,16.5,1.47,23.93,2.71a126.37,126.37,0,0,1,20,4.74,37.64,37.64,0,0,1,8.33,3.84c2.48,1.64,5,3.28,7.62,4.87v2.47Z"/></g></g></svg>