<svg xmlns="http://www.w3.org/2000/svg" viewBox="0 0 306 30.56"><defs><style>.cls-1{fill:#fff;}</style></defs><title>mobile-edge-4</title><g id="Layer_2" data-name="Layer 2"><g id="Layer_1-2" data-name="Layer 1"><path id="mobile-edge-4" class="cls-1" d="M306,30.56H0V4.47c6.62-1.24,13.69-2.25,21-3A273.42,273.42,0,0,1,48.45,0h1.33c4.66,0,9.07.21,13.09.53A103.32,103.32,0,0,1,74.15,2,40.41,40.41,0,0,1,84.56,5.26c5.62,2.87,14.37,7.11,24.11,11a153.68,153.68,0,0,0,27,8.43A61.52,61.52,0,0,0,147.28,26h.43a32.17,32.17,0,0,0,5.2-.45,20.55,20.55,0,0,0,4.5-1.3,49.18,49.18,0,0,1,6.83-2.26c2.54-.67,5.43-1.27,8.59-1.81A185.11,185.11,0,0,1,193.41,18c4-.21,8-.32,12.06-.32,3.39,0,6.72.08,9.92.23,3.62.17,7.1.43,10.34.79s6.47.83,9.27,1.37c1.53.3,3,.63,4.34,1,.83.22,1.75.42,2.72.61a99.21,99.21,0,0,0,14.57,1.48c2.58.1,5.24.15,8.16.15s6,0,9.34-.15C284.75,22.78,296.2,22,306,21.22v9.34Z"/></g></g></svg>
