<svg xmlns="http://www.w3.org/2000/svg" viewBox="0 0 570 148.91"><defs><style>.cls-1{fill:#fff;}</style></defs><title>Asset 2</title><g id="Layer_2" data-name="Layer 2"><g id="Layer_1-2" data-name="Layer 1"><path class="cls-1" d="M570,148.91H43.22a30.78,30.78,0,0,0,6.49-.7A25.83,25.83,0,0,0,56,145.92a37.09,37.09,0,0,0,6.2-4.12,75.43,75.43,0,0,0,6.68-6.21c1.43-1.46,2.92-2.86,4.44-4.14A53.81,53.81,0,0,1,77.81,128a59.66,59.66,0,0,1,9.27-5.18,84.92,84.92,0,0,1,9.54-3.6c3.21-1,6.53-1.94,9.74-2.83h0c4.59-1.26,9.34-2.57,14.09-4.27A97.5,97.5,0,0,0,135,105.27c4.62-2.59,9.62-5.71,14.88-9.29,9.09-6.18,17.43-12.69,22.21-16.72,1.62-1.37,4.31-2.58,8.46-3.81,3.74-1.12,8.34-2.15,13.22-3.25h0c14.24-3.2,32-7.17,44-16.41A63.68,63.68,0,0,1,246,50.64c3.1-1.7,6.69-3.43,10.64-5.16A247.07,247.07,0,0,1,282.73,36a271.49,271.49,0,0,1,27.95-6.92c4.59-.87,8.95-1.53,13-2A102.31,102.31,0,0,1,335,26.41a40.4,40.4,0,0,1,10.84,1.21c6.07,1.75,15.47,4.24,25.77,6.21A154.84,154.84,0,0,0,399.75,37a60.6,60.6,0,0,0,12-1.07,32.3,32.3,0,0,0,5-1.43A20.8,20.8,0,0,0,421,32.31a49.35,49.35,0,0,1,6.27-3.52c2.36-1.14,5.08-2.29,8.08-3.41a185.11,185.11,0,0,1,19.79-6.06c7.15-1.78,14.6-3.26,21.56-4.28,3.57-.52,7-.93,10.3-1.2s6.51-.42,9.36-.42c1.57,0,3.06,0,4.45.13.87,0,1.81.08,2.78.08a99,99,0,0,0,14.59-1.33c5-.77,10.66-1.86,17.18-3.34C547.5,6.21,560.49,2.62,570,0h0V148.91Z"/><path class="cls-1" d="M42.28,148.91H0v-8.63A140.16,140.16,0,0,0,17.2,145c5.15,1.09,10.14,2.13,14.52,2.85a71.86,71.86,0,0,0,10.55,1.08Z"/></g></g></svg>