<svg xmlns="http://www.w3.org/2000/svg" width="63.811" height="92.376" viewBox="0 0 63.811 92.376">
  <g id="Group_13696" data-name="Group 13696" transform="matrix(0.545, 0.839, -0.839, 0.545, -3778.718, -797.724)">
    <path id="Path_9548" data-name="Path 9548" d="M2787.876-2738.731c.664.552,1.318-.172,1.692-.529.254.189-.226,1.012.515.777,1.047-.28-.175-.974.454-1.145l.437.687c.81-.545,1.4-.08,2.067-.005a.44.44,0,0,0,.269-.207c.708.288,1.517-.706,2.052-.488-.13.145.3.431.36.6l.984-.447c-.436.192-.426.59-.513.978a3.551,3.551,0,0,0,.662-.323c-.13.143-.259.29-.1.466l1.038-.68a.476.476,0,0,0-.274-.107,1.476,1.476,0,0,1,1.173.049c-.036.157-.165.3-.2.461-.3-.435-.48-.058-.646.244.707-.084.174.1.506.376a.683.683,0,0,0,.592-.891,1.177,1.177,0,0,0,1.315-.17l-.121.544.531-.18-.442.67c1,.351.207-.935,1.324-.648l-.008.478c.436-.191.6-1,.926-.432.426-.3-.7-.662.286-.777a1.665,1.665,0,0,0,.819.509c.32-.222-.226-.56-.429-.49,1.494-.251.886,1.614,2.229.963-.447-.336.4-.929-.676-.9.521-.292,1,.672,1.545.144l-.363.614a1.043,1.043,0,0,0,.522-.293l-.054.47c.681-.836,1.224.369,1.643-.717-.3.854.493-.06.75.268-.559.606-1.563.012-1.654.8.248.233.484-.155.724.072a1.581,1.581,0,0,0-.5.49c.828.429,1.326-.494,1.84-.709l-.9.2c.091-.784.407-.147.673-.764.441.411.806-.2,1.166.049-.1-.008-.1.073-.2.07.98-.036,1.223,1.236,1.611,1.251.38.095,1.117-.345.86-.672.318-.223-1.306.258-.724-.768.533,1.163,1.161-.459,2.36.321-.541.427.3.655-.186.979a1.054,1.054,0,0,0,.875-.622l.167.364c.776-.836.2-.729,1.353-1.191-.392.294.448.522.149.787a1.163,1.163,0,0,0,.868-.321l-.044.053c1.167-.213.941.442,2.01.014l-.1-.22c1.4-.624,3.144-.263,4.585-.567l-.5-.172c.151.11.975-.368,1.414-.03a.866.866,0,0,1-.332.1.69.69,0,0,0,.516.667l.142-.379.133.29c.525,0-.143-.539.383-.543.282,1.078,2.26.1,2.692,1.049.375-.789-.993-.094-.584-.812a.98.98,0,0,0,.566.318l-.107-.467c1.585.239,2.182.629,3.6.5l-.06.1c.349.228.732.1,1.009-.327.1.217-.266.336-.075.526.917-1.217,1.755.848,2.316,0-.093.949,1.047,1.83.546,2.578l.366-.12c-.134.627-1.142.038-1.366.694l-1.133-.636c.031.234-.166.587.017.664-.284.017-.535.056-.169.386-2.709-1.544-5.562.047-8.243-.752-.185.058-.085.277-.018.423-.484-.595-.48.324-.757.413l-.708-.856c-.3.264-.078.525-.1.7-1.382.2-2.706-.625-3.833-.092-.348-.305.1-.7-.365-.8.616.887-1.376.447-.985,1.071-.431-.946-1.683-.175-1.447-1.5-.559-.065-.476.572-.318.687a2.26,2.26,0,0,0-1.717.39c-.35-.3-2.984.383-3.541-.6.38.64-.039.336-.425.624l.329.564-.856-.046c-.176.058-.225.035-.223-.017-.144-.03.042-.329-.323-.468-.583-.025-.619.289-.947.59l.088.083-.4.061c-.291-.013,1.044-.586.1-.862-.019.157-.6.92-.842.515.485.02.434-.376.259-.541l-.681-.029.209.718c-1.951,0-3.97-.483-6.056-.4.046-.634-1.47-.006-1.262-.94l.078.088c.514-.094-.132-.729-.551-.616.429.289-.8.948.253,1.066l-.829.456c-.495,1.8-2.18-.111-3.433.486a.349.349,0,0,0,.126-.221c-1.116.591-2.461-.439-2.723-.149l-.086-.488a1.8,1.8,0,0,1-2.19.55c.017-.08.15-.223-.026-.323a1.227,1.227,0,0,1-1.326.648l.035-.156-1.2.1c.044-1.51-2.083.962-2.407-.671-.246.447-1.129.6-1.525.818a.3.3,0,0,0-.089-.2c-.48.822-1.327-.232-1.841-.129-.339.2-.2.455-.061.71-.645-.627-1.839.748-2.074.482-.482-.054-.167-.577-.292-.91-.723.158.091,1.366-.862.781.114-.068.322-.125.244-.212-.366-.116-.985-1.842-1.36-1.486l.236.267c-.681.4-1.562-1.2-1.693-.181l.052.473c-1.143-.607-.5.194-1.655-.335l.016-.078c-.514.1-.778-.482-1.046.285l.174.1a6.107,6.107,0,0,1-1.337-.011c-.078.074-.393.194-.48.035-.043.633-1.508.317-1.795.286.515-.1.278-.368.139-.623-.229.506-.633.6-.932.209,0,.044,0,.088,0,.132-.037.954-.486,1.652-1,1.561.131-.118.334-.188.254-.349s-.276.021-.342.08c-.079-.16.189-.29.1-.563-.574.764-.963.07-1.776.353.261-.242.044-.392-.041-.662-.084.894-1.086-.756-.807.39-1.562-.662-4.011.021-4.61-.712-.159-.32-.613.211-.886.232l.046-.392c-.786.725-.6.276-1.527,1.008.385-.473.234-.685-.136-1.047l-.638.826-.107-.6a.751.751,0,0,1-.826.059c.138-.01.064-.061.058-.17-.156.844-1.265.764-1.447,1.168-.259-.816-.749.22-.935-.545a1.348,1.348,0,0,1-.345.293c.125.356.165.756-.082.585-.021.009-.038.008-.059.015l-.1-.475a2.207,2.207,0,0,1-.692.188,1,1,0,0,1,.255.233c-.109-.069-.208-.155-.3-.23a.4.4,0,0,1-.092,0,.1.1,0,0,1,.056-.025.4.4,0,0,0-.541,0c-.877-.719-2.011,1.035-2.974.051.146.1.351.141.414-.03-.827.06-1.63-.6-2.16-.232l.027.443a4.318,4.318,0,0,1-1.567.343l-.039.5c-.7-.171-2.241.665-2.651-.362-.183.4-.978-.1-1.383.041l-.094-.382a1.812,1.812,0,0,0-1.165.143c-1.046-.785-2.05.024-2.981-.015l-.006-.111-.95.293c.255-.353-.192.243-.474.152a1.109,1.109,0,0,1-1.137-.142l-.6-.008c.676-.272-.033-.553-.061-1l-.393.362c-.151-.211.255-.352-.026-.442-.263.242-1.024.24-1.272.7a.641.641,0,0,0,.237.3c.034-.029.031-.023.01.008.01.007.016.015.026.023a.177.177,0,0,0-.032-.014.894.894,0,0,0-.11.178c-.476-.09-.3.086-.292.289-.528-.683-.842-.209-1.239-1.016.544.906-1.246.03-.914.9-.389-.694-.278-.028-.522-.621.565.181,1.147-.473,1.613-.786l-.441-.413c.312-.8,1,.279,1.279,0a.4.4,0,0,1-.6-.165l.107.6a1.835,1.835,0,0,0,1.625-.562c-.426-.192.531-.373.228-.8l-.342.08c-.152-.211.183-.4.378-.583,1.066.422,3.047,0,3.421.472a.774.774,0,0,0-.82.172l.5.242c-.411.029-.723-.5-1.332-.293.093.383-.358.917.089,1.44,1.145.582.976-1.017,2.367-.9.132-.121-.306.633.441.413a2.614,2.614,0,0,0,1.666-2.122c-.4.252-1.2.754-1.3.152.4-.254,1.079-.414,1.124-.806.39.693-.747.221-.227.8a.86.86,0,0,0,.531-.374c-.19.294.236.484.315.645.894-.01,1.4.287,2.36.331a.934.934,0,0,1,.116.494c.474-.2,1.165-1.256,1-1.691.55-.04.572.293,1.044.089-.732-.613.144.1.239-.573.48-.091.16.322.376.473a.967.967,0,0,0,.3-.483c.282.506-.6,1.345-.268,1.933a6.405,6.405,0,0,0,1.314,1.075,8.116,8.116,0,0,0-.1-3.672c.045-.394.442.409.651.452.593.622.938-.514,1.437-.273l-.393.363a.973.973,0,0,0,.951-.293c.014.222-.411,1.149-.186,1.408.905.1,1.793-1.138,1.752-1.8l-1.407.712c-.035-.552,1-.573.959-1.237l1.276.174c-.162.021-.66.188-.473.49.551-.04.283.09.645.342a21.114,21.114,0,0,0-2.275,3.4l.671-.382.158.323c.872-.453,1.7-2.636,1.94-3.211.492.131.291,1.318.168,1.55.974.042,1-1.69,1.979-1.539l-.362-.252c.234-.115,1.071.111.986-.108.187.311.348,1.05.127,1.254l.9-1.127c-.128.12-.069,1.066-.127,1.238.348.03.62-1.108.4-1.258.667.673.506.3,1.041,1.1.2-.07,0-1.008-.141-1.108a.883.883,0,0,1,.941-.048c-.762.421-.254,2.132-.414,2.858l1.686-2.862a8.888,8.888,0,0,0-.2,1.186c.155-.843,2.014-.986,2.919-.884l-.137.009c-.19.293.585.513.912.213-.059.173-.131.119-.268.13.592.622.816-1.289,1.417-.555-.558-.069-.676.272-.655.6.466-.312,1.522,0,1.323-.986.289.2.558.072.521.573l1.141-.61a.269.269,0,0,0,.163.459c-.629-.118-1.263.817-1.581.174-.03.613.2.937-.115,1.459,1.228-.313,1.921-1.369,2.706-2.093l1.065.421.051-.281.171.7c.138-.163.229-.3.253-.24a.366.366,0,0,1-.067.262.558.558,0,0,0,.273-.175,2.3,2.3,0,0,1-.377,1.186c-.094-.131-.19-.265-.288-.386-.218.357-.379.725-.091.954.041-.049.1-.1.155-.155-.142.267-.229.487-.132.588l.829-.354a5.5,5.5,0,0,1-.384-.518c.525-.471,1.126-1.044.677-1.511l.617.405a5.033,5.033,0,0,1,1.527-1.1c.043.242-.2.455-.043.632.67-.8,1.571.895,1.729.2.531-.181.233-.612.573-.814-.02.078-.054.234.043.244l.409-.511c.157.178-.374.355.07.566a2.217,2.217,0,0,1,1.868-.428c.915-.137-.368-1,.4-.912.078.566.358.963.672.953.261-.289.234-.611.67-.8l-.041.634c.4-.035.722-.157.714.321a.581.581,0,0,1,.726-.134c.614-.344-.417-1.274-.553-1.519.587.463,1,.181,1.327.936l-.532.18c1.108.763,1.089-.915,1.58.416-.386-.044-.856.3-.636.647l.566-.335c.062.166-.321.123-.07.311a4.952,4.952,0,0,0,.645-.686l-.008.04,1.011-.125c-.191-.022-.243.211-.051.234l.67-.345c-.206.163,0,.355.291.452.848.177.715-1.438,1.361-.8-.1-.011-.114.068-.211.057l.334.277c.1-1.342,2.006-.172,2.11-1.516.472.533.027.322-.61.967l.506.377A1.679,1.679,0,0,0,2787.876-2738.731Zm-6.534.214c-.1-.28-.407.034-.559.137C2781.036-2738.227,2781.16-2737.968,2781.342-2738.517Zm-11.826,1.586c-.19-.177-.358-.252-.474-.093A.542.542,0,0,0,2769.516-2736.931Zm-33.185,3.81c.23.084.345.155.016-.025a.136.136,0,0,1-.016.024Zm-.687-.2c.209-.111.3-.026.343.1-.176-.03-.332-.019-.383.1a.161.161,0,0,1,.04-.2Zm74.285-1.508c.087-.139.175-.264-.131-.122l.131.121Z" fill="#161615"/>
  </g>
</svg>
