<svg xmlns="http://www.w3.org/2000/svg" width="122" height="122" viewBox="0 0 122 122">
  <path id="Subtraction_3" data-name="Subtraction 3" d="M-2601,733a60.619,60.619,0,0,1-23.744-4.794,61,61,0,0,1-10.362-5.624,61.421,61.421,0,0,1-9.028-7.449,61.43,61.43,0,0,1-7.448-9.028,61.009,61.009,0,0,1-5.624-10.362A60.615,60.615,0,0,1-2662,672a60.617,60.617,0,0,1,4.794-23.744,61.011,61.011,0,0,1,5.624-10.362,61.434,61.434,0,0,1,7.448-9.028,61.419,61.419,0,0,1,9.028-7.449,61,61,0,0,1,10.362-5.624A60.619,60.619,0,0,1-2601,611a60.619,60.619,0,0,1,23.744,4.794,61,61,0,0,1,10.362,5.624,61.423,61.423,0,0,1,9.028,7.449,61.434,61.434,0,0,1,7.448,9.028,61.006,61.006,0,0,1,5.624,10.362A60.617,60.617,0,0,1-2540,672a60.615,60.615,0,0,1-4.794,23.744,61,61,0,0,1-5.624,10.362,61.43,61.43,0,0,1-7.448,9.028,61.425,61.425,0,0,1-9.028,7.449,61.007,61.007,0,0,1-10.362,5.624A60.619,60.619,0,0,1-2601,733Zm-12-81v40.549l35.4-20.729L-2613,652Z" transform="translate(2662 -611)" fill="#fff" opacity="0.8"/>
</svg>
