<svg style="display: none" xmlns="http://www.w3.org/2000/svg" preserveAspectRatio="none" width="416.498" height="416.498" viewBox="0 0 416.498 653.938">
  <path d="M-2277.887,1361.172h0c-8.372,0-18.405-1.289-33.549-4.308-2.022-.4-4.056-.8-5.851-1.159l-.012,0c-6.759-1.333-13.143-2.591-19.2-3.995V708.824a61.459,61.459,0,0,1,8.4-.591,54.837,54.837,0,0,1,14.214,1.848,55.7,55.7,0,0,1,14.3,6.137,69.962,69.962,0,0,1,14.017,11.313,104.016,104.016,0,0,1,13.352,17.376c17.775,28.545,30.406,45.813,42.235,57.742,11.469,11.565,21.984,17.982,36.539,26.863l.009.005c4.557,2.781,9.722,5.933,15.365,9.526a142.958,142.958,0,0,1,13.739,9.866,93.025,93.025,0,0,1,10.63,10.127,65.631,65.631,0,0,1,7.674,10.53,53.791,53.791,0,0,1,4.87,11.073,58.62,58.62,0,0,1,1.934,24.342c-.959,8.436-3.4,17.663-7.459,28.21a92.089,92.089,0,0,0-5.054,19.022,116.625,116.625,0,0,0-1.336,18.92c.069,12.558,1.788,25.05,3.45,37.13,2.049,14.9,3.985,28.965,2.941,42.622-1.146,14.97,5.391,27.5,19.982,38.307,12.638,9.36,29.308,15.983,44.015,21.827,2.284.907,4.44,1.764,6.6,2.639,9.394,3.8,25.76,8.115,44.71,13.115,20.75,5.475,44.268,11.68,63.876,18.636,22.645,8.034,35.887,15.609,40.482,23.158a41.308,41.308,0,0,1,5.518,12.951,19.776,19.776,0,0,1-.71,11.248c-2.177,5.791-7.386,11.04-15.923,16.046-8.324,4.88-20.084,9.681-35.952,14.677-11.987,3.766-32.639,11.536-58.153,21.879-25.235,10.23-54.023,22.486-81.061,34.51-29.611,13.168-55.954,25.524-76.182,35.733-11.123,5.614-20.4,10.579-27.577,14.76-7.7,4.484-13.06,8.113-15.937,10.787C-2248.673,1355.747-2260.843,1361.172-2277.887,1361.172Z" transform="translate(2337 -707.734)" fill="#dab239" stroke="rgba(0,0,0,0)" stroke-width="1"/>
</svg>
