<svg xmlns="http://www.w3.org/2000/svg" viewBox="0 0 1600 140.4"><defs><style>.cls-1{fill:#fff;}</style></defs><title>hero-style-1-bottom</title><g id="Layer_2" data-name="Layer 2"><g id="Layer_1-2" data-name="Layer 1"><path class="cls-1" d="M1600,140.4H0V90c2.42-.06,5.08-.08,8.13-.08,10.91,0,24.83.35,40.94.75l7.46.19c18.39.45,39.82.94,61.48.94,25.62,0,46.83-.68,64.85-2.07,10.5-.81,20-1.89,28.27-3.19a163.58,163.58,0,0,0,23.14-5.17,227.12,227.12,0,0,1,25-6.17c9-1.73,18.82-3.22,29.28-4.42a573.23,573.23,0,0,1,64.24-3.55A482.26,482.26,0,0,1,406.66,70c8.27,1,15.88,2.14,22.6,3.52a128.32,128.32,0,0,1,18.08,4.95,62.2,62.2,0,0,0,21.36,3.32c11.25,0,24.68-2.1,39.92-6.24A367.73,367.73,0,0,0,553,60c13.73-5.73,28.37-12.55,43.53-20.27,12.43-6.33,25-13.15,37.25-20.26,5.63-3.26,13.07-6.18,22.11-8.69A242.71,242.71,0,0,1,686,4.69C707.41,1.62,733.36,0,761,0c15.62,0,31.51.51,47.22,1.51s31,2.49,45.27,4.4c30.17,4,54.48,9.81,70.31,16.68a140.62,140.62,0,0,0,21.63,7.23,203.73,203.73,0,0,0,23.17,4.3c13.71,1.78,28.85,2.61,47.65,2.61,9.17,0,17.86-.19,27.45-.41l1.45,0c8.25-.19,16-.38,23.21-.38a193.32,193.32,0,0,1,21.12.9c6.46.72,11.32,1.91,14.83,3.64,14.61,7.17,39.75,18.34,66.52,28.19,15.52,5.71,30.11,10.45,43.36,14.06,15.56,4.25,29.37,7,41,8.13,13,1.29,25.85,1.61,38.22,1.92h0c8.68.22,17.66.44,26.42,1a228.12,228.12,0,0,1,26.33,3.08,155.35,155.35,0,0,1,26.63,7.24,151,151,0,0,1,27.35,13.49c11.39,7.08,20.69,11.85,29.27,15a80.22,80.22,0,0,0,12.87,3.62,66.32,66.32,0,0,0,12.49,1.18,76.62,76.62,0,0,0,16.58-1.91,134.34,134.34,0,0,0,18.25-5.57c13.23-5,28.33-12.19,46.69-21.12a379.72,379.72,0,0,0,34.56-18.92A261.65,261.65,0,0,0,1600,69v71.35Z"/></g></g></svg>