<svg xmlns="http://www.w3.org/2000/svg" viewBox="0 0 1600 146.4"><defs><style>.cls-1{fill:#fff;}</style></defs><title>hero-style-2-bottom</title><g id="Layer_2" data-name="Layer 2"><g id="Layer_1-2" data-name="Layer 1"><path class="cls-1" d="M1600,146.39H0V104.91c2.49,1.27,5.09,2.57,7.75,3.86,18.35,8.93,33.44,16.16,46.68,21.12a134.28,134.28,0,0,0,18.25,5.56,76.6,76.6,0,0,0,16.58,1.91h0a66.28,66.28,0,0,0,12.48-1.18,80.26,80.26,0,0,0,12.87-3.62c8.58-3.16,17.88-7.92,29.27-15a151,151,0,0,1,27.35-13.49,155.32,155.32,0,0,1,26.63-7.24,228.14,228.14,0,0,1,26.32-3.08c8.77-.56,17.74-.79,26.42-1h0c12.38-.31,25.17-.63,38.21-1.92,11.65-1.14,25.46-3.88,41-8.13,13.25-3.62,27.83-8.35,43.36-14.06,26.76-9.85,51.91-21,66.52-28.19,3.52-1.73,8.37-2.92,14.84-3.64a193.48,193.48,0,0,1,21.13-.9c7.17,0,14.95.18,23.18.38l1.45,0c9.6.22,18.29.41,27.46.41,18.8,0,33.94-.83,47.65-2.61a203.66,203.66,0,0,0,23.17-4.3,140.64,140.64,0,0,0,21.63-7.23C636.08,15.73,660.4,10,690.57,5.91c14.28-1.92,29.51-3.4,45.27-4.4S767.44,0,783.06,0c27.67,0,53.62,1.62,75,4.69a242.59,242.59,0,0,1,30.07,6.05c9,2.51,16.48,5.44,22.11,8.69,12.29,7.11,24.83,13.92,37.25,20.26C962.67,47.42,977.31,54.24,991,60a367.71,367.71,0,0,0,44.42,15.6c15.24,4.14,28.68,6.24,39.92,6.24a62.2,62.2,0,0,0,21.36-3.32,128.27,128.27,0,0,1,18.08-4.95c6.72-1.39,14.33-2.57,22.6-3.52a482.22,482.22,0,0,1,53.84-2.81,573.31,573.31,0,0,1,64.24,3.55c10.45,1.2,20.3,2.69,29.28,4.42a227.15,227.15,0,0,1,25,6.17,163.61,163.61,0,0,0,23.14,5.17c8.26,1.31,17.77,2.38,28.28,3.19,18,1.39,39.24,2.07,64.87,2.07,21.65,0,43.08-.48,61.46-.93l7.31-.18h0c16.17-.4,30.14-.75,41.09-.75,4.18,0,7.64.05,10.59.15,1,0,1.91,0,2.83,0a67,67,0,0,0,10.17-.74,50.1,50.1,0,0,0,8.55-2.08A41.14,41.14,0,0,0,1581.25,80c7.3-6,12.08-14,16.7-21.76h0l.05-.08c.65-1.09,1.33-2.22,2-3.31V146.4Z"/></g></g></svg>